<?xml version="1.0" standalone="no"?>
<!DOCTYPE svg PUBLIC "-//W3C//DTD SVG 1.1//EN" "http://www.w3.org/Graphics/SVG/1.1/DTD/svg11.dtd" >
<svg xmlns="http://www.w3.org/2000/svg" xmlns:xlink="http://www.w3.org/1999/xlink" version="1.1">
<metadata>
Created by FontForge 20170731 at Mon Mar 12 17:50:09 2018
 By Aleksey,,,
Copyright (c) 2017 by Deepak Singh Dogra. All rights reserved.
</metadata>
<defs>
<font id="Agenor-Light" horiz-adv-x="1560" >
  <font-face 
    font-family="Agenor Light"
    font-weight="300"
    font-stretch="normal"
    units-per-em="2048"
    panose-1="0 0 0 0 0 0 0 0 0 0"
    ascent="1638"
    descent="-410"
    x-height="1499"
    cap-height="1499"
    bbox="-20 -473 2630 1925"
    underline-thickness="0"
    underline-position="0"
    unicode-range="U+000D-2265"
  />
<missing-glyph horiz-adv-x="1007" 
 />
    <glyph glyph-name=".notdef" horiz-adv-x="1007" 
 />
    <glyph glyph-name="glyph1" horiz-adv-x="0" 
 />
    <glyph glyph-name="uni000D" unicode="&#xd;" horiz-adv-x="690" 
 />
    <glyph glyph-name="glyph3" horiz-adv-x="0" 
 />
    <glyph glyph-name="glyph3" horiz-adv-x="0" 
 />
    <glyph glyph-name="space" unicode=" " horiz-adv-x="690" 
 />
    <glyph glyph-name="exclam" unicode="!" horiz-adv-x="591" 
d="M229 408l-47 997q-4 92 88 92h117l-47 -1001q-2 -88 -92 -88h-19zM285 -14q-45 0 -80 35.5t-35 82.5q0 45 35 81t80 36t79.5 -35.5t34.5 -81.5q0 -47 -34.5 -82.5t-79.5 -35.5z" />
    <glyph glyph-name="quotedbl" unicode="&#x22;" horiz-adv-x="763" 
d="M125 1135l-27 272q-10 94 84 94h115l-27 -280q-10 -86 -94 -86h-51zM451 1135l-27 272q-10 94 86 94h113l-27 -280q-10 -86 -94 -86h-51z" />
    <glyph glyph-name="numbersign" unicode="#" horiz-adv-x="1726" 
d="M197 0l155 403h-289l39 101q27 70 105 69h213l141 369h-289l39 98q27 70 105 70h209l125 320q29 72 102 71h102l-147 -391h395l125 320q29 72 105 71h104l-154 -391h297l-39 -98q-27 -70 -104 -70h-219l-141 -369h294l-38 -100q-27 -70 -105 -70h-215l-129 -331
q-29 -72 -102 -72h-105l156 403h-402l-127 -331q-29 -72 -102 -72h-104zM598 573h399l142 369h-400z" />
    <glyph glyph-name="dollar" unicode="$" horiz-adv-x="1372" 
d="M662 -215q-90 0 -91 90v111q-248 33 -442 192l53 66q51 63 125 16q182 -115 418 -115q170 0 265 75t95 192q0 66 -30.5 112.5t-94 76.5t-124 46.5t-158.5 32.5q-238 41 -338 90q-221 104 -221 330q0 199 131 301t321 123v198h97q90 0 90 -90v-106q231 -20 422 -158
l-50 -72q-47 -70 -124 -26q-160 90 -355 90q-125 0 -232.5 -63.5t-107.5 -192.5q0 -61 42 -107.5t120 -76t140.5 -45t150.5 -33.5q23 -4 33 -6q78 -16 123 -27.5t121.5 -43.5t120.5 -73t79 -113.5t35 -166.5q0 -211 -145.5 -320.5t-372.5 -116.5v-190h-96z" />
    <glyph glyph-name="percent" unicode="%" horiz-adv-x="1796" 
d="M420 723q-154 0 -253 111.5t-99 281.5q0 172 99 282.5t253 110.5q152 0 250 -110.5t98 -282.5q0 -168 -100.5 -280.5t-247.5 -112.5zM360 0l842 1440q35 61 109 61h121l-840 -1440q-35 -61 -109 -61h-123zM420 879q82 0 126 74.5t44 162.5t-41 162t-129 74q-57 0 -96 -29
t-53.5 -74t-19.5 -75.5t-5 -57.5q0 -25 4 -53.5t18.5 -75.5t54.5 -77.5t97 -30.5zM1331 -33q-152 0 -250 111.5t-98 283.5q0 170 98.5 281t249.5 111q150 0 248 -111t98 -281q0 -168 -99.5 -281.5t-246.5 -113.5zM1331 123q84 0 129 74.5t45 164.5q0 86 -43 161t-131 75
q-55 0 -94 -28.5t-54.5 -73.5t-20.5 -76t-5 -57.5t4 -55t18.5 -76t54.5 -78t97 -30.5z" />
    <glyph glyph-name="ampersand" unicode="&#x26;" horiz-adv-x="1361" 
d="M510 -27q-168 0 -284.5 89.5t-133.5 238.5q-31 270 203 434l108 76q-145 174 -145 365q0 160 111.5 255t253.5 95q170 0 265 -100.5t97 -237.5q6 -256 -321 -426l290 -303q59 76 127 196q45 80 123 37l76 -39q-76 -143 -203 -319l148 -164q59 -68 -6 -127l-62 -53
l-190 207q-51 -63 -98.5 -105.5t-142.5 -80.5t-216 -38zM563 891q246 117 246 297q2 84 -54.5 135t-133.5 51q-76 0 -128.5 -48t-52.5 -142q0 -158 123 -293zM516 141q190 0 332 185l-338 348q-10 -4 -26.5 -13.5t-58.5 -41t-74 -67.5t-55.5 -91t-19.5 -115q6 -84 74 -144.5
t166 -60.5z" />
    <glyph glyph-name="quotesingle" unicode="'" horiz-adv-x="430" 
d="M123 1135l-27 272q-10 94 84 94h115l-27 -280q-10 -86 -94 -86h-51z" />
    <glyph glyph-name="parenleft" unicode="(" horiz-adv-x="772" 
d="M559 -242q-442 379 -442 991.5t442 991.5l53 -66q47 -57 -10 -125q-135 -141 -214 -361t-79 -439q0 -481 295 -789q57 -63 10 -127z" />
    <glyph glyph-name="parenright" unicode=")" horiz-adv-x="749" 
d="M195 -242l-56 76q-47 63 11 127q295 307 294 789q0 219 -78.5 439t-213.5 361q-55 66 -9 127l52 64q442 -379 442 -991.5t-442 -991.5z" />
    <glyph glyph-name="asterisk" unicode="*" horiz-adv-x="876" 
d="M571 827l-145 203l-111 -149q-39 -55 -94 -17l-53 39l158 209l-185 62q-63 23 -41 86l19 51l241 -80v196q0 68 68 68h61v-264l179 61q66 23 86 -41l18 -57l-254 -84l121 -149q43 -57 -14 -97z" />
    <glyph glyph-name="plus" unicode="+" horiz-adv-x="1142" 
d="M569 279q-90 0 -90 90v313h-391v82q0 90 90 90h301v406h94q90 0 91 -91v-315h391v-82q0 -90 -90 -90h-301v-403h-95z" />
    <glyph glyph-name="comma" unicode="," horiz-adv-x="423" 
d="M98 -193l-4 7q-29 41 29 82q51 37 53 90q-45 -4 -77.5 28.5t-37.5 79.5q-2 47 31 84q35 39 84 39q100 0 125 -92q25 -96 -29 -191q-59 -102 -174 -127z" />
    <glyph glyph-name="hyphen" unicode="-" horiz-adv-x="825" 
d="M174 694v66q0 90 90 90h361v-66q0 -90 -90 -90h-361z" />
    <glyph glyph-name="period" unicode="." horiz-adv-x="407" 
d="M180 -12q-47 0 -82 34.5t-35 82t35 82t82 34.5t82 -34.5t35 -82t-35 -82t-82 -34.5z" />
    <glyph glyph-name="slash" unicode="/" horiz-adv-x="1093" 
d="M-8 -305l882 1962q31 68 105 67h108l-882 -1962q-31 -68 -105 -67h-108z" />
    <glyph glyph-name="zero" unicode="0" horiz-adv-x="1507" 
d="M756 -33q-203 0 -354.5 111.5t-225.5 287t-74 382.5q0 344 182.5 561t471.5 217q283 0 468 -221.5t185 -556.5q0 -315 -179 -548t-474 -233zM756 141q182 0 319 163t137 444q0 152 -53 287.5t-159.5 226t-243.5 90.5q-178 0 -317.5 -157t-139.5 -447q0 -150 49 -284
t156 -228.5t252 -94.5z" />
    <glyph glyph-name="one" unicode="1" horiz-adv-x="894" 
d="M598 0q-90 0 -90 90v1086l-186 -179q-68 -63 -129 2l-64 66l455 436h116v-1501h-102z" />
    <glyph glyph-name="two" unicode="2" horiz-adv-x="1294" 
d="M166 0v221l526 441q145 123 198.5 220t53.5 195q0 150 -90 218.5t-217 68.5q-170 0 -268 -172q-41 -72 -115 -51l-98 26q33 86 87 161t159.5 136.5t234.5 61.5q238 0 365.5 -134.5t127.5 -312.5q0 -156 -77.5 -275.5t-237.5 -254.5l-469 -389h715q90 0 90 -90v-70h-985z
" />
    <glyph glyph-name="three" unicode="3" horiz-adv-x="1210" 
d="M633 -31q-387 0 -518 350l88 27q72 23 114 -53q90 -160 312 -160q125 0 198.5 73t73.5 193q0 160 -102.5 224.5t-296.5 64.5v74q0 66 67 69q164 8 248 75t84 218q0 106 -74.5 179t-197.5 73q-221 0 -312 -168q-43 -74 -114 -51l-88 27q131 350 508 350q236 0 353.5 -123
t117.5 -287q0 -139 -66.5 -232t-159.5 -134v-2q86 -27 156 -126.5t70 -230.5q0 -211 -136.5 -320.5t-324.5 -109.5z" />
    <glyph glyph-name="four" unicode="4" horiz-adv-x="1355" 
d="M975 0q-90 0 -90 90v266h-762v187l805 958h149v-985h101q90 0 90 -90v-70h-191v-356h-102zM336 516h549v680z" />
    <glyph glyph-name="five" unicode="5" horiz-adv-x="1265" 
d="M625 -31q-180 0 -295 56.5t-209 154.5l55 58q55 59 125 8q154 -109 320 -111q141 -4 236 87t99 249q6 166 -75.5 261t-237.5 102q-207 8 -332 -121l-155 80l129 708h759v-71q0 -90 -90 -91h-520l-76 -438q123 96 293 96q213 0 353.5 -136t140.5 -369
q0 -236 -145.5 -379.5t-374.5 -143.5z" />
    <glyph glyph-name="six" unicode="6" horiz-adv-x="1308" 
d="M645 -31q-246 0 -389 158t-143 385q0 141 63 285q61 143 422 647q41 57 111 57h159l-407 -575q94 61 221 61q223 0 365.5 -141t142.5 -367q0 -250 -163 -380t-382 -130zM653 131q152 0 251.5 96.5t99.5 249.5q0 158 -101.5 257.5t-249.5 99.5q-162 0 -254 -98.5
t-92 -260.5q0 -141 101.5 -242.5t244.5 -101.5z" />
    <glyph glyph-name="seven" unicode="7" horiz-adv-x="1193" 
d="M172 0l758 1339h-862v72q0 90 90 90h954v-198l-690 -1240q-35 -63 -107 -63h-143z" />
    <glyph glyph-name="eight" unicode="8" horiz-adv-x="1253" 
d="M623 -31q-233 0 -381 110.5t-148 332.5q0 133 79 237.5t177 126.5q-84 43 -140 130t-56 210q0 190 133 299t336 109q211 0 339 -113t128 -295q0 -123 -56.5 -210t-140.5 -130q98 -23 177 -127t79 -237q0 -215 -148.5 -329t-377.5 -114zM623 854q113 0 192.5 67.5
t79.5 172.5q0 127 -78 197.5t-194 70.5q-119 0 -197 -69.5t-78 -198.5q0 -104 80 -172t195 -68zM623 131q141 0 238 78t97 215q0 123 -99 206t-236 83q-139 0 -238.5 -83t-99.5 -206q0 -137 97.5 -215t240.5 -78z" />
    <glyph glyph-name="nine" unicode="9" horiz-adv-x="1325" 
d="M455 0l407 575q-94 -61 -221 -61q-223 0 -365.5 141.5t-142.5 366.5q0 250 163 380t382 130q246 0 389 -157.5t143 -385.5q0 -141 -63 -284q-61 -143 -422 -648q-41 -57 -111 -57h-159zM670 668q162 0 254 98t92 260q0 141 -101.5 242.5t-244.5 101.5q-152 0 -251.5 -96
t-99.5 -250q0 -158 102 -257t249 -99z" />
    <glyph glyph-name="colon" unicode=":" horiz-adv-x="407" 
d="M180 645q-47 0 -82 35t-35 82t35 82t82 35t82 -35t35 -82t-35 -82t-82 -35zM180 -12q-47 0 -82 34.5t-35 82t35 82t82 34.5t82 -34.5t35 -82t-35 -82t-82 -34.5z" />
    <glyph glyph-name="semicolon" unicode=";" horiz-adv-x="405" 
d="M180 645q-47 0 -82 35t-35 82t35 82t82 35t82 -35t35 -82t-35 -82t-82 -35zM98 -193l-4 7q-29 41 29 82q51 37 53 90q-45 -4 -77.5 28.5t-37.5 79.5q-2 47 31 84q35 39 84 39q100 0 125 -92q25 -96 -29 -191q-59 -102 -174 -127z" />
    <glyph glyph-name="less" unicode="&#x3c;" horiz-adv-x="1116" 
d="M983 231l-854 408v207l854 407v-110q0 -72 -68 -105l-634 -295l634 -297q68 -31 68 -104v-111z" />
    <glyph glyph-name="equal" unicode="=" horiz-adv-x="1134" 
d="M123 932v67q0 90 90 91h784v-68q0 -90 -90 -90h-784zM123 522v66q0 90 90 90h784v-66q0 -90 -90 -90h-784z" />
    <glyph glyph-name="greater" unicode="&#x3e;" horiz-adv-x="1116" 
d="M129 231v111q0 74 68 104l634 297l-634 295q-68 33 -68 105v110l854 -407v-207z" />
    <glyph glyph-name="question" unicode="?" horiz-adv-x="1183" 
d="M406 416q0 164 67.5 272.5t226.5 202.5q98 57 138.5 113.5t40.5 130.5q0 29 -8.5 59.5t-35 74.5t-93 71.5t-164.5 27.5q-197 0 -302 -166q-47 -74 -118 -47l-99 35q23 55 59 109.5t96 111.5t154.5 93t209.5 36q225 0 359 -110.5t134 -294.5q0 -51 -8 -95.5t-29.5 -81
t-38 -61.5t-52.5 -53.5t-52.5 -39.5t-58 -37t-50.5 -32q-84 -55 -127 -105t-57 -126q-16 -88 -92 -88h-100zM496 -14q-43 0 -79 35.5t-36 82.5q0 45 36 81t79 36q45 0 79.5 -34.5t34.5 -82t-34.5 -83t-79.5 -35.5z" />
    <glyph glyph-name="at" unicode="@" horiz-adv-x="1708" 
d="M809 -31q-340 0 -536.5 209t-196.5 578q0 152 56 296t161 255q90 98 236.5 159.5t308.5 61.5q354 0 561 -176q219 -178 219 -521q0 -145 -27.5 -256.5t-100.5 -187.5t-183 -76q-72 0 -136.5 39t-95.5 113q-45 -70 -117.5 -107t-148.5 -37q-174 0 -276.5 113t-102.5 307
q0 186 104.5 300t276.5 114q25 0 47.5 -3t36.5 -6t33.5 -12.5t28 -14.5t32 -18.5t31.5 -19.5v66h174v-502q0 -145 80 -164q84 -18 128 74t44 278q0 262 -154 394q-180 141 -454 141q-145 0 -261 -53t-184.5 -141.5t-103.5 -195t-35 -220.5q0 -90 13.5 -172t51 -168
t97 -147.5t161 -101.5t232.5 -40q166 0 278 41q80 31 123 -29l45 -63q-186 -107 -446 -107zM809 479q205 0 211 219v119q-2 82 -45 134.5t-164 52.5q-76 0 -123 -47.5t-61.5 -101.5t-14.5 -116q0 -139 58.5 -199.5t138.5 -60.5z" />
    <glyph glyph-name="A" unicode="A" 
d="M23 0l737 1499h41l737 -1499h-145q-74 0 -105 68l-102 217h-813l-103 -217q-31 -68 -104 -68h-143zM455 446h651l-324 695z" />
    <glyph glyph-name="B" unicode="B" horiz-adv-x="1402" 
d="M178 0v1499h621q201 0 316.5 -100.5t115.5 -302.5q0 -119 -60.5 -202t-152.5 -108v-2q106 -14 191 -116.5t85 -243.5q0 -217 -134 -320.5t-337 -103.5h-645zM371 848h411q127 0 191.5 69.5t64.5 184.5q0 117 -70.5 177t-183.5 60h-413v-491zM371 158h432q145 0 224 77.5
t79 186t-76 183.5t-213 75h-446v-522z" />
    <glyph glyph-name="C" unicode="C" horiz-adv-x="1587" 
d="M858 -33q-332 0 -551 226.5t-219 554t219 554t551 226.5q205 0 372 -92.5t267 -249.5l-102 -43q-70 -29 -123 31q-164 178 -414 178q-248 0 -412.5 -176.5t-164.5 -428t164.5 -428t412.5 -176.5q246 0 414 179q57 63 125 28l98 -47q-94 -158 -256 -247t-381 -89z" />
    <glyph glyph-name="D" unicode="D" horiz-adv-x="1585" 
d="M178 0v1499h570q317 0 522 -188q219 -203 219 -561q0 -360 -221 -566q-201 -184 -520 -184h-570zM371 162h352q76 0 146.5 12t150.5 51t138.5 101.5t97 171t38.5 250.5q0 143 -38.5 251.5t-98 171t-140.5 101.5t-150.5 52t-143.5 13h-352v-1175z" />
    <glyph glyph-name="E" unicode="E" horiz-adv-x="1378" 
d="M180 0v1499h1057v-69q0 -90 -90 -91h-774v-516h702v-73q0 -90 -90 -91h-612v-495h774q90 0 90 -90v-74h-1057z" />
    <glyph glyph-name="F" unicode="F" horiz-adv-x="1314" 
d="M180 0v1499h1057v-69q0 -90 -90 -91h-774v-530h702v-76q0 -90 -90 -90h-612l-2 -553q0 -90 -90 -90h-101z" />
    <glyph glyph-name="G" unicode="G" horiz-adv-x="1671" 
d="M852 -31q-328 0 -546 226.5t-218 552.5q0 322 224.5 551t541.5 229q178 0 338 -80t266 -217l-94 -60q-68 -41 -125 19q-168 164 -385 164q-236 0 -405.5 -181.5t-169.5 -424.5q0 -248 163.5 -426.5t409.5 -178.5q242 0 387 126t162 335h-510q-90 0 -90 90v74h798
q4 -59 -4 -152q-25 -293 -217 -470t-526 -177z" />
    <glyph glyph-name="H" unicode="H" horiz-adv-x="1613" 
d="M268 0q-90 0 -90 90v1409h103q90 0 90 -90v-606h891v696h102q90 0 90 -90v-1409h-102q-90 0 -90 90v551h-891v-641h-103z" />
    <glyph glyph-name="I" unicode="I" horiz-adv-x="632" 
d="M315 0q-90 0 -90 90v1409h103q90 0 90 -90v-1409h-103z" />
    <glyph glyph-name="J" unicode="J" horiz-adv-x="1228" 
d="M522 -31q-305 0 -450 248l96 47q63 33 123 -31q84 -94 227 -94q86 0 150.5 29t100.5 70t58.5 99t28.5 106.5t6 99.5v866q0 90 90 90h103v-956q0 -272 -144.5 -423t-388.5 -151z" />
    <glyph glyph-name="K" unicode="K" horiz-adv-x="1339" 
d="M178 0v1499h103q90 0 90 -90v-1319q0 -90 -90 -90h-103zM1118 0q-66 0 -110 47l-637 662l602 737q41 53 110 53h166l-635 -782l682 -717h-178z" />
    <glyph glyph-name="L" unicode="L" horiz-adv-x="1241" 
d="M180 0v1499h103q90 0 90 -90v-1251h749q90 0 90 -90v-68h-1032z" />
    <glyph glyph-name="M" unicode="M" horiz-adv-x="1824" 
d="M178 0v1499h33l709 -872l710 872h33v-1499h-98q-90 0 -90 90v918l-555 -695l-551 695v-918q0 -90 -90 -90h-101z" />
    <glyph glyph-name="N" unicode="N" horiz-adv-x="1605" 
d="M178 0v1499h39l1036 -1069v979q0 90 90 90h101v-1499h-35l-1040 1077v-987q0 -90 -90 -90h-101z" />
    <glyph glyph-name="O" unicode="O" horiz-adv-x="1705" 
d="M860 -31q-328 0 -547 226.5t-219 554.5q0 326 219 553t547 227q332 0 551 -227.5t219 -552.5q0 -328 -219 -554.5t-551 -226.5zM860 141q238 0 408 181.5t170 427.5q0 244 -170 425t-408 181q-236 0 -405.5 -181.5t-169.5 -425t169.5 -426t405.5 -182.5z" />
    <glyph glyph-name="P" unicode="P" horiz-adv-x="1368" 
d="M178 0v1499h598q276 0 419.5 -144.5t143.5 -371.5q0 -221 -145 -361.5t-414 -140.5h-409v-391q0 -90 -90 -90h-103zM371 643h420q170 0 263 99.5t93 240.5q0 143 -97.5 249.5t-271.5 106.5h-407v-696z" />
    <glyph glyph-name="Q" unicode="Q" horiz-adv-x="1720" 
d="M897 -2q-201 0 -356.5 59.5t-251.5 165t-145.5 242.5t-49.5 297q0 317 221.5 541.5t532.5 224.5q313 0 533.5 -216t220.5 -532q0 -229 -100.5 -393t-223.5 -219h264q90 0 90 -90v-80h-735zM848 182q233 0 396 164t163 416q0 238 -165 409.5t-394 171.5q-231 0 -396 -172
t-165 -409q0 -236 165 -408t396 -172z" />
    <glyph glyph-name="R" unicode="R" horiz-adv-x="1452" 
d="M178 0v1499h660q217 0 356 -139t139 -359q0 -193 -99 -318.5t-269 -164.5l385 -518h-158q-70 0 -111 55l-325 451h-385v-416q0 -90 -90 -90h-103zM371 672h432q158 0 250 82t92 247q0 49 -15.5 101.5t-49 109t-102.5 92t-161 35.5h-446v-667z" />
    <glyph glyph-name="S" unicode="S" horiz-adv-x="1372" 
d="M743 -31q-354 0 -602 203l54 66q51 63 124 16q182 -115 418 -115q170 0 265.5 75t95.5 192q0 66 -31 112.5t-93.5 76.5t-125 47t-158.5 34q-233 41 -332 86q-227 102 -227 332q0 96 34 171.5t89 123t128 79t145.5 44t148.5 12.5q289 0 516 -162l-49 -72q-47 -70 -125 -26
q-160 90 -354 90q-125 0 -232.5 -63.5t-107.5 -192.5q0 -61 38.5 -107.5t129 -79t134.5 -44t156 -33.5q18 -4 27 -7q66 -14 100.5 -22t102 -29.5t107.5 -50.5t84 -72t64.5 -106.5t20.5 -140.5q0 -217 -153.5 -327t-391.5 -110z" />
    <glyph glyph-name="T" unicode="T" horiz-adv-x="1236" 
d="M530 0v1339h-456v70q0 90 90 90h1012v-69q0 -90 -91 -91h-364v-1249q0 -90 -90 -90h-101z" />
    <glyph glyph-name="U" unicode="U" horiz-adv-x="1589" 
d="M803 -29q-283 0 -454 170t-171 453v905h101q90 0 90 -90v-805q0 -131 44 -227t113.5 -145.5t138 -71t138 -21.5t138.5 21.5t138.5 71t113.5 145.5t44 227v805q0 90 90 90h100v-905q0 -285 -169.5 -454t-454.5 -169z" />
    <glyph glyph-name="V" unicode="V" horiz-adv-x="1454" 
d="M705 0l-674 1499h139q76 0 104 -67l451 -1029l451 1029q29 68 104 67h143l-680 -1499h-38z" />
    <glyph glyph-name="W" unicode="W" horiz-adv-x="1982" 
d="M520 0l-526 1499h131q78 0 102 -74l330 -960l416 1036h31l419 -1036l338 960q25 74 103 74h129l-535 -1499h-28l-439 1071l-442 -1071h-29z" />
    <glyph glyph-name="X" unicode="X" horiz-adv-x="1521" 
d="M113 0l551 741l-564 758h168q72 0 111 -57l401 -565l400 565q39 57 110 57h166l-559 -758l549 -741h-168q-72 0 -111 57l-387 545l-387 -545q-39 -57 -110 -57h-170z" />
    <glyph glyph-name="Y" unicode="Y" horiz-adv-x="1429" 
d="M625 0v571l-557 928h149q74 0 109 -61l395 -678l397 678q35 61 109 61h151l-561 -932v-477q0 -90 -90 -90h-102z" />
    <glyph glyph-name="Z" unicode="Z" horiz-adv-x="1415" 
d="M94 0v41l926 1298h-809q-90 0 -90 91v69h1208v-41l-919 -1294h829q90 0 90 -90v-74h-1235z" />
    <glyph glyph-name="bracketleft" unicode="[" horiz-adv-x="751" 
d="M180 -348v2216h477v-70q0 -90 -90 -90h-194v-1896h194q90 0 90 -91v-69h-477z" />
    <glyph glyph-name="backslash" unicode="\" horiz-adv-x="995" 
d="M840 -305q-76 0 -103 72l-714 1957h110q76 0 103 -71l714 -1958h-110z" />
    <glyph glyph-name="bracketright" unicode="]" horiz-adv-x="669" 
d="M47 -348v69q0 90 90 91h195v1896h-195q-90 0 -90 90v70h475v-2216h-475z" />
    <glyph glyph-name="asciicircum" unicode="^" horiz-adv-x="1220" 
d="M143 821l334 690h248l334 -690h-107q-74 0 -104 68l-248 518l-248 -518q-31 -68 -104 -68h-105z" />
    <glyph glyph-name="underscore" unicode="_" horiz-adv-x="1347" 
d="M123 -156v66q0 90 90 90h1001v-66q0 -90 -90 -90h-1001z" />
    <glyph glyph-name="grave" unicode="`" horiz-adv-x="573" 
d="M371 1632q-61 0 -111 37l-190 146l110 49q74 35 123 -33l150 -199h-82z" />
    <glyph glyph-name="a" unicode="a" 
d="M23 0l737 1499h41l737 -1499h-145q-74 0 -105 68l-102 217h-813l-103 -217q-31 -68 -104 -68h-143zM455 446h651l-324 695z" />
    <glyph glyph-name="b" unicode="b" horiz-adv-x="1402" 
d="M178 0v1499h621q201 0 316.5 -100.5t115.5 -302.5q0 -119 -60.5 -202t-152.5 -108v-2q106 -14 191 -116.5t85 -243.5q0 -217 -134 -320.5t-337 -103.5h-645zM371 848h411q127 0 191.5 69.5t64.5 184.5q0 117 -70.5 177t-183.5 60h-413v-491zM371 158h432q145 0 224 77.5
t79 186t-76 183.5t-213 75h-446v-522z" />
    <glyph glyph-name="c" unicode="c" horiz-adv-x="1587" 
d="M858 -33q-332 0 -551 226.5t-219 554t219 554t551 226.5q205 0 372 -92.5t267 -249.5l-102 -43q-70 -29 -123 31q-164 178 -414 178q-248 0 -412.5 -176.5t-164.5 -428t164.5 -428t412.5 -176.5q246 0 414 179q57 63 125 28l98 -47q-94 -158 -256 -247t-381 -89z" />
    <glyph glyph-name="d" unicode="d" horiz-adv-x="1585" 
d="M178 0v1499h570q317 0 522 -188q219 -203 219 -561q0 -360 -221 -566q-201 -184 -520 -184h-570zM371 162h352q76 0 146.5 12t150.5 51t138.5 101.5t97 171t38.5 250.5q0 143 -38.5 251.5t-98 171t-140.5 101.5t-150.5 52t-143.5 13h-352v-1175z" />
    <glyph glyph-name="e" unicode="e" horiz-adv-x="1378" 
d="M180 0v1499h1057v-69q0 -90 -90 -91h-774v-516h702v-73q0 -90 -90 -91h-612v-495h774q90 0 90 -90v-74h-1057z" />
    <glyph glyph-name="f" unicode="f" horiz-adv-x="1314" 
d="M180 0v1499h1057v-69q0 -90 -90 -91h-774v-530h702v-76q0 -90 -90 -90h-612l-2 -553q0 -90 -90 -90h-101z" />
    <glyph glyph-name="g" unicode="g" horiz-adv-x="1671" 
d="M852 -31q-328 0 -546 226.5t-218 552.5q0 322 224.5 551t541.5 229q178 0 338 -80t266 -217l-94 -60q-68 -41 -125 19q-168 164 -385 164q-236 0 -405.5 -181.5t-169.5 -424.5q0 -248 163.5 -426.5t409.5 -178.5q242 0 387 126t162 335h-510q-90 0 -90 90v74h798
q4 -59 -4 -152q-25 -293 -217 -470t-526 -177z" />
    <glyph glyph-name="h" unicode="h" horiz-adv-x="1613" 
d="M268 0q-90 0 -90 90v1409h103q90 0 90 -90v-606h891v696h102q90 0 90 -90v-1409h-102q-90 0 -90 90v551h-891v-641h-103z" />
    <glyph glyph-name="i" unicode="i" horiz-adv-x="632" 
d="M315 0q-90 0 -90 90v1409h103q90 0 90 -90v-1409h-103z" />
    <glyph glyph-name="j" unicode="j" horiz-adv-x="1228" 
d="M522 -31q-305 0 -450 248l96 47q63 33 123 -31q84 -94 227 -94q86 0 150.5 29t100.5 70t58.5 99t28.5 106.5t6 99.5v866q0 90 90 90h103v-956q0 -272 -144.5 -423t-388.5 -151z" />
    <glyph glyph-name="k" unicode="k" horiz-adv-x="1339" 
d="M178 0v1499h103q90 0 90 -90v-1319q0 -90 -90 -90h-103zM1118 0q-66 0 -110 47l-637 662l602 737q41 53 110 53h166l-635 -782l682 -717h-178z" />
    <glyph glyph-name="l" unicode="l" horiz-adv-x="1241" 
d="M180 0v1499h103q90 0 90 -90v-1251h749q90 0 90 -90v-68h-1032z" />
    <glyph glyph-name="m" unicode="m" horiz-adv-x="1824" 
d="M178 0v1499h33l709 -872l710 872h33v-1499h-98q-90 0 -90 90v918l-555 -695l-551 695v-918q0 -90 -90 -90h-101z" />
    <glyph glyph-name="n" unicode="n" horiz-adv-x="1605" 
d="M178 0v1499h39l1036 -1069v979q0 90 90 90h101v-1499h-35l-1040 1077v-987q0 -90 -90 -90h-101z" />
    <glyph glyph-name="o" unicode="o" horiz-adv-x="1705" 
d="M860 -31q-328 0 -547 226.5t-219 554.5q0 326 219 553t547 227q332 0 551 -227.5t219 -552.5q0 -328 -219 -554.5t-551 -226.5zM860 141q238 0 408 181.5t170 427.5q0 244 -170 425t-408 181q-236 0 -405.5 -181.5t-169.5 -425t169.5 -426t405.5 -182.5z" />
    <glyph glyph-name="p" unicode="p" horiz-adv-x="1368" 
d="M178 0v1499h598q276 0 419.5 -144.5t143.5 -371.5q0 -221 -145 -361.5t-414 -140.5h-409v-391q0 -90 -90 -90h-103zM371 643h420q170 0 263 99.5t93 240.5q0 143 -97.5 249.5t-271.5 106.5h-407v-696z" />
    <glyph glyph-name="q" unicode="q" horiz-adv-x="1720" 
d="M897 -2q-201 0 -356.5 59.5t-251.5 165t-145.5 242.5t-49.5 297q0 317 221.5 541.5t532.5 224.5q313 0 533.5 -216t220.5 -532q0 -229 -100.5 -393t-223.5 -219h264q90 0 90 -90v-80h-735zM848 182q233 0 396 164t163 416q0 238 -165 409.5t-394 171.5q-231 0 -396 -172
t-165 -409q0 -236 165 -408t396 -172z" />
    <glyph glyph-name="r" unicode="r" horiz-adv-x="1452" 
d="M178 0v1499h660q217 0 356 -139t139 -359q0 -193 -99 -318.5t-269 -164.5l385 -518h-158q-70 0 -111 55l-325 451h-385v-416q0 -90 -90 -90h-103zM371 672h432q158 0 250 82t92 247q0 49 -15.5 101.5t-49 109t-102.5 92t-161 35.5h-446v-667z" />
    <glyph glyph-name="s" unicode="s" horiz-adv-x="1372" 
d="M743 -31q-354 0 -602 203l54 66q51 63 124 16q182 -115 418 -115q170 0 265.5 75t95.5 192q0 66 -31 112.5t-93.5 76.5t-125 47t-158.5 34q-233 41 -332 86q-227 102 -227 332q0 96 34 171.5t89 123t128 79t145.5 44t148.5 12.5q289 0 516 -162l-49 -72q-47 -70 -125 -26
q-160 90 -354 90q-125 0 -232.5 -63.5t-107.5 -192.5q0 -61 38.5 -107.5t129 -79t134.5 -44t156 -33.5q18 -4 27 -7q66 -14 100.5 -22t102 -29.5t107.5 -50.5t84 -72t64.5 -106.5t20.5 -140.5q0 -217 -153.5 -327t-391.5 -110z" />
    <glyph glyph-name="t" unicode="t" horiz-adv-x="1236" 
d="M530 0v1339h-456v70q0 90 90 90h1012v-69q0 -90 -91 -91h-364v-1249q0 -90 -90 -90h-101z" />
    <glyph glyph-name="u" unicode="u" horiz-adv-x="1589" 
d="M803 -29q-283 0 -454 170t-171 453v905h101q90 0 90 -90v-805q0 -131 44 -227t113.5 -145.5t138 -71t138 -21.5t138.5 21.5t138.5 71t113.5 145.5t44 227v805q0 90 90 90h100v-905q0 -285 -169.5 -454t-454.5 -169z" />
    <glyph glyph-name="v" unicode="v" horiz-adv-x="1454" 
d="M705 0l-674 1499h139q76 0 104 -67l451 -1029l451 1029q29 68 104 67h143l-680 -1499h-38z" />
    <glyph glyph-name="w" unicode="w" horiz-adv-x="1982" 
d="M520 0l-526 1499h131q78 0 102 -74l330 -960l416 1036h31l419 -1036l338 960q25 74 103 74h129l-535 -1499h-28l-439 1071l-442 -1071h-29z" />
    <glyph glyph-name="x" unicode="x" horiz-adv-x="1521" 
d="M113 0l551 741l-564 758h168q72 0 111 -57l401 -565l400 565q39 57 110 57h166l-559 -758l549 -741h-168q-72 0 -111 57l-387 545l-387 -545q-39 -57 -110 -57h-170z" />
    <glyph glyph-name="y" unicode="y" horiz-adv-x="1429" 
d="M625 0v571l-557 928h149q74 0 109 -61l395 -678l397 678q35 61 109 61h151l-561 -932v-477q0 -90 -90 -90h-102z" />
    <glyph glyph-name="z" unicode="z" horiz-adv-x="1415" 
d="M94 0v41l926 1298h-809q-90 0 -90 91v69h1208v-41l-919 -1294h829q90 0 90 -90v-74h-1235z" />
    <glyph glyph-name="braceleft" unicode="{" horiz-adv-x="831" 
d="M735 -379q-248 16 -393 197q-53 66 -79.5 161t-30 160.5t-3.5 196.5q2 170 -10 211q-23 80 -121 106v211q49 12 78 37t40 59.5t14 80.5t-1 102v39q0 131 3.5 196.5t30 160.5t79.5 161q145 180 393 196v-102q0 -74 -78 -98q-117 -41 -176 -113q-63 -80 -63 -430
q0 -12 -2 -56t-3 -55.5t-5.5 -46t-8.5 -47t-11 -40t-17.5 -42t-24.5 -36t-33.5 -38t-44.5 -34.5q25 -16 44.5 -33.5t33.5 -39t24.5 -35t17.5 -41t11 -40t8.5 -47.5t5.5 -46t3 -55t2 -56q0 -350 63 -431q59 -72 176 -112q78 -25 78 -98v-103z" />
    <glyph glyph-name="bar" unicode="|" horiz-adv-x="577" 
d="M276 -233q-66 0 -65 90v1872h39q90 0 90 -91v-1871h-64z" />
    <glyph glyph-name="braceright" unicode="}" horiz-adv-x="831" 
d="M57 -379v103q0 74 78 98q117 41 176 112q63 80 64 431q0 12 2 56t3 55t5 46t8 47.5t11.5 40t17.5 41t24.5 35t34 38.5t43.5 34q-25 18 -44 34.5t-33.5 38t-24.5 36t-17.5 42t-11.5 40t-8 47t-5 46t-3 55.5t-2 56q0 350 -64 430q-59 72 -176 113q-78 25 -78 98v102
q248 -16 394 -196q53 -66 79.5 -161t29.5 -160.5t3 -196.5q-2 -170 10 -211q23 -80 121 -107v-211q-49 -12 -77.5 -36.5t-40 -59.5t-14.5 -81t1 -101v-39q0 -131 -3 -196.5t-29.5 -161t-79.5 -160.5q-146 -181 -394 -197z" />
    <glyph glyph-name="asciitilde" unicode="~" horiz-adv-x="1157" 
d="M733 690q-102 2 -231 80q-100 59 -152 59q-43 0 -82 -30q-61 -55 -121 -39l-55 16q27 76 91.5 133.5t166.5 57.5q43 0 85 -12.5t61.5 -22.5t72.5 -39q113 -59 160 -62q68 0 119 58q57 63 123 35l49 -23q-33 -82 -105.5 -146.5t-181.5 -64.5z" />
    <glyph glyph-name="exclamdown" unicode="&#xa1;" horiz-adv-x="591" 
d="M285 1278q-47 0 -81 36t-34 81q0 47 34 82.5t81 35.5q43 0 78.5 -35.5t35.5 -82.5q0 -45 -35.5 -81t-78.5 -36zM180 2l47 1024q4 66 70 66h41l47 -1020q2 -33 -15.5 -51.5t-50.5 -18.5h-139z" />
    <glyph glyph-name="cent" unicode="&#xa2;" horiz-adv-x="1249" 
d="M672 -27q-90 0 -90 90v87q-213 20 -351.5 189t-138.5 406q0 227 140.5 403.5t349.5 190.5v189h100q90 0 90 -90v-92q129 -14 235.5 -89t161.5 -167l-98 -52q-68 -35 -123 25q-109 115 -262 115q-176 0 -295 -118t-119 -315q0 -193 119 -314.5t295 -121.5q156 0 256 109
q55 59 123 24l98 -51q-72 -100 -174 -172t-217 -74v-172h-100z" />
    <glyph glyph-name="sterling" unicode="&#xa3;" horiz-adv-x="1241" 
d="M123 0v170q84 45 134 134t50 192q0 53 -26 178h-154v65q0 90 90 90h49l-28 205q-31 211 113.5 351.5t365.5 140.5q180 0 292.5 -98.5t166.5 -231.5l-93 -31q-74 -23 -118 47q-92 154 -248 154q-147 0 -225 -83t-70 -234q2 -29 13 -115t14 -105h450v-65q0 -90 -90 -90
h-336q2 -18 7 -71.5t5 -65.5q12 -121 -26.5 -224.5t-124.5 -158.5h708q90 0 91 -91v-63h-1010z" />
    <glyph glyph-name="yen" unicode="&#xa5;" horiz-adv-x="1234" 
d="M520 0v279h-342v61q0 90 90 90h252v162h-342v65q0 90 90 91h238l-434 753h147q72 0 107 -61l290 -510l291 510q35 61 107 61h145l-430 -753h344v-66q0 -90 -90 -90h-270v-162h360v-61q0 -90 -90 -90h-270v-279h-193z" />
    <glyph glyph-name="brokenbar" unicode="&#xa6;" horiz-adv-x="577" 
d="M203 905v824h55q90 0 90 -91v-733h-145zM276 -233q-74 0 -73 90v729h145v-819h-72z" />
    <glyph glyph-name="section" unicode="&#xa7;" horiz-adv-x="1069" 
d="M528 -29q-143 0 -259.5 51.5t-182.5 114.5l47 70q47 68 123 24q139 -80 295 -79q80 0 139.5 32.5t57.5 100.5q0 43 -32 70.5t-66 37.5t-120 31q-29 6 -43 10q-2 0 -44 9.5t-57 13.5t-57 15t-62.5 22.5t-56.5 30t-54.5 40t-40 48t-29.5 61.5t-8 76q2 109 72.5 171
t136.5 76q-92 25 -150.5 91.5t-58.5 138.5q0 74 33.5 131t80 88t105.5 49t100 23.5t74 5.5q217 0 414 -138l-56 -77q-47 -68 -124 -27q-119 59 -250 59q-84 0 -130 -30.5t-46 -81.5q0 -98 268 -150q59 -12 99 -21t101.5 -35t99.5 -57.5t66.5 -86t28.5 -123.5
q0 -82 -49 -141.5t-111 -88.5q66 -25 114 -92t48 -143q0 -158 -124 -239t-292 -81zM561 586q92 -12 150.5 25.5t58.5 119.5q0 164 -317 199q-80 8 -144.5 -37t-48.5 -143q10 -74 87 -109t214 -55z" />
    <glyph glyph-name="dieresis" unicode="&#xa8;" horiz-adv-x="817" 
d="M190.5 1651q-49.5 0 -84 33.5t-34.5 83t34.5 84t84 34.5t83 -34.5t33.5 -84t-33.5 -83t-83 -33.5zM594 1651q-49 0 -83 33.5t-34 83t34 84t83 34.5t84 -34.5t35 -84t-35 -83t-84 -33.5z" />
    <glyph glyph-name="copyright" unicode="&#xa9;" horiz-adv-x="1667" 
d="M817 -25q-315 0 -537.5 226.5t-222.5 544t222.5 544t537.5 226.5q313 0 535.5 -226.5t222.5 -544t-222.5 -544t-535.5 -226.5zM817 113q256 0 438.5 185t182.5 447q0 260 -182.5 445.5t-438.5 185.5q-258 0 -441 -185t-183 -446q0 -262 183 -447t441 -185zM817 336
q-168 0 -285.5 119.5t-117.5 289.5q0 168 117.5 288t285.5 120q111 0 205 -58.5t145 -152.5l-59 -24q-61 -27 -123 28q-76 66 -168 66q-109 0 -186.5 -78t-77.5 -188.5t78 -188.5t186 -78q88 0 160 58q63 49 123 26l61 -24q-53 -90 -144 -146.5t-200 -56.5z" />
    <glyph glyph-name="ordfeminine" unicode="&#xaa;" horiz-adv-x="735" 
d="M274 899q-18 0 -45.5 7t-65.5 24.5t-64.5 58.5t-26.5 98q0 80 51 128.5t105.5 60.5t113.5 12q78 0 135 -12q-2 80 -30.5 111.5t-118.5 31.5q-61 0 -117 -22q-63 -23 -84 18l-27 45q117 72 250 72q129 0 193 -76q59 -66 59 -194v-347h-55q-68 0 -68 68v2q-74 -86 -205 -86
zM305 1004q49 0 98.5 26.5t63.5 65.5q10 27 10 67v29q-57 8 -131 8q-152 0 -151 -104q0 -37 23.5 -59.5t45 -27.5t41.5 -5zM74 641v53q0 68 67 68h465v-53q0 -68 -67 -68h-465z" />
    <glyph glyph-name="guillemotleft" unicode="&#xab;" horiz-adv-x="1167" 
d="M492 299q-70 0 -107 59l-250 394l252 399q37 59 107 59h131l-293 -460l293 -451h-133zM883 299q-70 0 -107 59l-250 394l252 399q37 59 107 59h131l-293 -460l293 -451h-133z" />
    <glyph glyph-name="logicalnot" unicode="&#xac;" horiz-adv-x="1187" 
d="M952 459q-90 0 -90 90v268h-655q-90 0 -90 90v86h938v-534h-103z" />
    <glyph glyph-name="uni00AD" unicode="&#xad;" horiz-adv-x="1681" 
 />
    <glyph glyph-name="registered" unicode="&#xae;" horiz-adv-x="1669" 
d="M817 -25q-315 0 -537.5 226.5t-222.5 544t222.5 544t537.5 226.5q313 0 535.5 -226.5t222.5 -544t-222.5 -544t-535.5 -226.5zM817 113q256 0 438.5 185t182.5 447q0 260 -182.5 445.5t-438.5 185.5q-258 0 -441 -185t-183 -446q0 -262 183 -447t441 -185zM541 383v731
h327q115 0 187.5 -72.5t72.5 -189.5q0 -82 -48 -152.5t-119 -91.5l174 -225h-125q-53 0 -82 41l-117 162h-129v-135q0 -68 -68 -68h-73zM682 727h186q37 0 78 29.5t41 95.5q0 59 -38 91t-81 32h-186v-248z" />
    <glyph glyph-name="macron" unicode="&#xaf;" horiz-adv-x="759" 
d="M61 1698v53q0 90 91 90h503v-53q0 -90 -90 -90h-504z" />
    <glyph glyph-name="degree" unicode="&#xb0;" horiz-adv-x="677" 
d="M328 1333q-90 0 -153.5 65.5t-63.5 158t63.5 158t153.5 65.5q92 0 155.5 -65.5t63.5 -158t-63.5 -158t-155.5 -65.5zM328 1442q47 0 80.5 33.5t33.5 81t-33.5 81t-80.5 33.5q-45 0 -79 -33.5t-34 -81t34 -81t79 -33.5z" />
    <glyph glyph-name="plusminus" unicode="&#xb1;" horiz-adv-x="1107" 
d="M543 438q-90 0 -90 90v240h-306v63q0 90 91 91h215v342h94q90 0 90 -90v-252h305v-64q0 -90 -90 -90h-215v-330h-94zM147 0v70q0 90 91 90h704v-70q0 -90 -90 -90h-705z" />
    <glyph glyph-name="uni00B2" unicode="&#xb2;" horiz-adv-x="802" 
d="M59 752v166q43 33 177.5 144.5t152.5 125.5q152 121 152 250q0 82 -50.5 119.5t-119.5 37.5q-92 0 -152 -98q-33 -57 -86 -41l-86 25q35 94 117 172t207 78q156 0 240.5 -88.5t84.5 -204.5q0 -102 -50 -178t-154 -164q-2 -2 -250 -211h399q68 0 68 -68v-65h-650z" />
    <glyph glyph-name="uni00B3" unicode="&#xb3;" horiz-adv-x="774" 
d="M344 725q-137 0 -216 72.5t-101 173.5l77 24q53 16 84 -43q51 -94 156 -94q80 0 126 40t46 99q0 104 -57.5 140.5t-190.5 42.5v47q0 63 68 69q94 8 137 42t43 120q0 57 -46 96t-126 39q-106 0 -158 -92q-29 -59 -84 -43l-75 25q29 94 106.5 170t210.5 76q166 0 247 -81
t81 -190q0 -164 -150 -229v-2q59 -20 104.5 -77.5t45.5 -152.5q0 -127 -93.5 -199.5t-234.5 -72.5z" />
    <glyph glyph-name="acute" unicode="&#xb4;" horiz-adv-x="593" 
d="M84 1632l154 201q49 63 122 31l109 -49l-186 -144q-49 -39 -113 -39h-86z" />
    <glyph glyph-name="paragraph" unicode="&#xb6;" horiz-adv-x="1097" 
d="M489 0q-84 0 -83 90v572q-147 0 -257 104t-110 293q0 442 518 442h361v-1501h-76q-90 0 -90 90v1294h-181v-1384h-82z" />
    <glyph glyph-name="periodcentered" unicode="&#xb7;" horiz-adv-x="387" 
d="M176 743q-47 0 -82 35t-35 82t35 82t82 35t82 -35t35 -82t-35 -82t-82 -35z" />
    <glyph glyph-name="cedilla" unicode="&#xb8;" horiz-adv-x="464" 
d="M182 -381q-84 2 -145 43q31 68 86 55q29 -6 57 -6q37 0 63.5 19.5t24.5 54.5q-4 63 -90 63q-70 -4 -96 -18l-16 27l57 145h86l-35 -84q51 20 111 4q100 -31 90 -151q-11 -152 -193 -152z" />
    <glyph glyph-name="uni00B9" unicode="&#xb9;" horiz-adv-x="577" 
d="M256 748v692l-111 -105q-49 -49 -96 2l-57 64l321 311h97v-897q0 -68 -68 -67h-86z" />
    <glyph glyph-name="ordmasculine" unicode="&#xba;" horiz-adv-x="796" 
d="M375 891q-129 0 -220.5 93t-91.5 224t91.5 223.5t220.5 92.5q131 0 222 -92.5t91 -223.5t-91 -224t-222 -93zM375 1001q80 0 137 61.5t57 145.5q0 82 -57 144.5t-137 62.5q-78 0 -135.5 -62.5t-57.5 -144.5q0 -84 57.5 -145.5t135.5 -61.5zM102 641v53q0 68 68 68h481
v-53q0 -68 -67 -68h-482z" />
    <glyph glyph-name="guillemotright" unicode="&#xbb;" horiz-adv-x="1167" 
d="M113 299l293 451l-293 460h131q70 0 106 -59l252 -399l-250 -394q-37 -59 -106 -59h-133zM504 299l293 451l-293 460h131q70 0 106 -59l252 -399l-250 -394q-37 -59 -106 -59h-133z" />
    <glyph glyph-name="onequarter" unicode="&#xbc;" horiz-adv-x="1763" 
d="M313 535q-68 0 -67 67v617l-105 -103q-51 -51 -96 2l-65 72l325 313h103v-968h-95zM260 0l854 1454q29 47 80 47h109l-852 -1454q-29 -47 -80 -47h-111zM1430 0q-68 0 -68 68v153h-469v144l506 604h125v-607h51q68 0 67 -67v-74h-118v-221h-94zM1094 362h268v334z" />
    <glyph glyph-name="onehalf" unicode="&#xbd;" horiz-adv-x="1763" 
d="M313 535q-68 0 -67 67v617l-107 -105q-49 -49 -96 4l-63 72l325 313h103v-968h-95zM260 0l854 1454q29 47 80 47h109l-852 -1454q-29 -47 -80 -47h-111zM1036 0v168q270 233 344 295q86 70 111 118t25 105q0 80 -49.5 117t-114.5 37q-96 0 -148 -99q-33 -57 -86 -41
l-94 27q29 94 111 175t217 81q156 0 239.5 -89t83.5 -208q0 -102 -49 -179t-151 -163l-242 -203h387q68 0 68 -67v-74h-652z" />
    <glyph glyph-name="threequarters" unicode="&#xbe;" horiz-adv-x="1933" 
d="M330 504q-137 0 -216 72.5t-102 173.5l78 24q53 16 84 -43q51 -94 156 -94q80 0 126 40t46 99q0 104 -57.5 140t-190.5 42v48q0 63 68 69q94 8 137 42t43 120q0 57 -46 96t-126 39q-106 0 -158 -92q-29 -59 -84 -43l-76 25q29 94 107 169.5t211 75.5q166 0 246.5 -80.5
t80.5 -189.5q0 -164 -149 -229v-2q59 -20 104 -78t45 -152q0 -92 -55 -162q-86 -110 -272 -110zM463 0l856 1454q29 47 80 47h110l-856 -1454q-29 -47 -80 -47h-110zM1632 0q-68 0 -67 68v153h-467v144l506 604h122v-607h52q68 0 67 -67v-74h-119v-221h-94zM1296 362h269
v334z" />
    <glyph glyph-name="questiondown" unicode="&#xbf;" horiz-adv-x="1165" 
d="M606 1296q-45 0 -79.5 36t-34.5 81q0 47 34.5 83t79.5 36q43 0 79 -37t36 -82t-36 -81t-79 -36zM524 -23q-256 0 -389 146q-104 109 -104 260q0 72 19.5 133.5t45 99t69.5 75.5t72.5 55.5t73.5 41.5q94 49 137.5 94.5t55.5 131.5q12 88 94 88h98v-50t-3 -63.5t-11 -62.5
t-28.5 -78t-51.5 -78q-66 -82 -199 -149q-109 -59 -144.5 -102.5t-35.5 -135.5q0 -29 8.5 -59.5t35 -74.5t93 -71.5t164.5 -27.5q195 0 301 165q47 74 119 47l100 -34q-25 -57 -60.5 -109.5t-96 -112t-154.5 -94.5t-209 -35z" />
    <glyph glyph-name="Agrave" unicode="&#xc0;" 
d="M770 1632q-61 0 -111 37l-190 146l111 49q74 35 122 -33l150 -199h-82zM23 0l737 1499h41l737 -1499h-145q-74 0 -105 68l-102 217h-813l-103 -217q-31 -68 -104 -68h-143zM455 446h651l-324 695z" />
    <glyph glyph-name="Aacute" unicode="&#xc1;" 
d="M692 1632l154 201q49 63 123 31l108 -49l-186 -144q-49 -39 -113 -39h-86zM23 0l737 1499h41l737 -1499h-145q-74 0 -105 68l-102 217h-813l-103 -217q-31 -68 -104 -68h-143zM455 446h651l-324 695z" />
    <glyph glyph-name="Acircumflex" unicode="&#xc2;" 
d="M487 1597l195 250h197l198 -250h-106q-68 0 -111 52l-84 94l-71 -92q-41 -53 -111 -54h-107zM23 0l737 1499h41l737 -1499h-145q-74 0 -105 68l-102 217h-813l-103 -217q-31 -68 -104 -68h-143zM455 446h651l-324 695z" />
    <glyph glyph-name="Atilde" unicode="&#xc3;" 
d="M938 1610q-74 0 -125 32.5t-92 64.5t-88 32q-41 0 -74 -33q-37 -35 -53.5 -42t-61.5 5l-43 21q74 182 234 182q80 0 158.5 -63.5t138.5 -63.5q45 0 82 43q61 72 119 39l41 -23q-27 -78 -86.5 -136t-149.5 -58zM23 0l737 1499h41l737 -1499h-145q-74 0 -105 68l-102 217
h-813l-103 -217q-31 -68 -104 -68h-143zM455 446h651l-324 695z" />
    <glyph glyph-name="Adieresis" unicode="&#xc4;" 
d="M581.5 1612q-49.5 0 -84 33.5t-34.5 83t34.5 84t84 34.5t83 -34.5t33.5 -84t-33.5 -83t-83 -33.5zM985 1612q-49 0 -83 33.5t-34 83t34 84t83 34.5t84 -34.5t35 -84t-35 -83t-84 -33.5zM23 0l737 1499h41l737 -1499h-145q-74 0 -105 68l-102 217h-813l-103 -217
q-31 -68 -104 -68h-143zM455 446h651l-324 695z" />
    <glyph glyph-name="Aring" unicode="&#xc5;" 
d="M23 0l718 1464q-68 16 -112.5 71.5t-44.5 127.5q0 82 58 141.5t142 59.5t141.5 -58.5t57.5 -142.5q0 -74 -47 -131t-117 -70l719 -1462h-145q-74 0 -105 68l-102 217h-813l-103 -217q-31 -68 -104 -68h-143zM784 1563q41 0 69 28.5t28 71.5q0 41 -28 69.5t-69 28.5
q-43 0 -69.5 -27.5t-26.5 -70.5t26.5 -71.5t69.5 -28.5zM455 446h651l-324 695z" />
    <glyph glyph-name="AE" unicode="&#xc6;" horiz-adv-x="2142" 
d="M41 0l973 1501h1057v-74q0 -90 -91 -90h-778v-512h709v-77q0 -90 -90 -91h-619v-491h776q41 0 67 -25.5t26 -66.5v-74h-1059v289h-572l-151 -230q-39 -59 -109 -59h-139zM545 449h467v749z" />
    <glyph glyph-name="Ccedilla" unicode="&#xc7;" horiz-adv-x="1587" 
d="M1272 322q57 63 125 28l98 -47q-193 -322 -606 -336l-25 -59q51 20 111 4q100 -31 90 -152q-10 -152 -193 -151q-84 2 -145 43q31 68 86 55q27 -6 57 -6q37 0 64 19.5t24 54.5q-4 63 -90 63q-70 -4 -96 -18l-16 26l49 123q-313 20 -515 243.5t-202 535.5q0 328 219 554
t551 226q205 0 372 -92.5t267 -249.5l-102 -43q-70 -29 -123 31q-164 178 -414 178q-248 0 -412.5 -176.5t-164.5 -428t164.5 -428t412.5 -176.5q246 1 414 179z" />
    <glyph glyph-name="Egrave" unicode="&#xc8;" horiz-adv-x="1378" 
d="M743 1632q-61 0 -110 37l-191 146l111 49q74 35 123 -33l149 -199h-82zM180 0v1499h1057v-69q0 -90 -90 -91h-774v-516h702v-73q0 -90 -90 -91h-612v-495h774q90 0 90 -90v-74h-1057z" />
    <glyph glyph-name="Eacute" unicode="&#xc9;" horiz-adv-x="1378" 
d="M563 1632l154 201q49 63 123 31l108 -49l-186 -144q-49 -39 -113 -39h-86zM180 0v1499h1057v-69q0 -90 -90 -91h-774v-516h702v-73q0 -90 -90 -91h-612v-495h774q90 0 90 -90v-74h-1057z" />
    <glyph glyph-name="Ecircumflex" unicode="&#xca;" horiz-adv-x="1378" 
d="M434 1597l195 250h196l199 -250h-106q-68 0 -111 52l-84 94l-72 -92q-41 -53 -110 -54h-107zM180 0v1499h1057v-69q0 -90 -90 -91h-774v-516h702v-73q0 -90 -90 -91h-612v-495h774q90 0 90 -90v-74h-1057z" />
    <glyph glyph-name="Edieresis" unicode="&#xcb;" horiz-adv-x="1378" 
d="M502 1612q-49 0 -84 33.5t-35 83t35 84t84 34.5t82.5 -34.5t33.5 -84t-33.5 -83t-82.5 -33.5zM905 1612q-49 0 -83 33.5t-34 83t34 84t83 34.5t84 -34.5t35 -84t-35 -83t-84 -33.5zM180 0v1499h1057v-69q0 -90 -90 -91h-774v-516h702v-73q0 -90 -90 -91h-612v-495h774
q90 0 90 -90v-74h-1057z" />
    <glyph glyph-name="Igrave" unicode="&#xcc;" horiz-adv-x="653" 
d="M348 1632q-61 0 -110 37l-191 146l111 49q74 35 123 -33l149 -199h-82zM336 0q-90 0 -90 90v1409h102q90 0 90 -90v-1409h-102z" />
    <glyph glyph-name="Iacute" unicode="&#xcd;" horiz-adv-x="686" 
d="M238 1632l153 201q49 63 123 31l109 -49l-187 -144q-49 -39 -112 -39h-86zM336 0q-90 0 -90 90v1409h102q90 0 90 -90v-1409h-102z" />
    <glyph glyph-name="Icircumflex" unicode="&#xce;" horiz-adv-x="686" 
d="M43 1597l195 250h196l199 -250h-107q-68 0 -110 52l-84 94l-72 -92q-41 -53 -110 -54h-107zM336 0q-90 0 -90 90v1409h102q90 0 90 -90v-1409h-102z" />
    <glyph glyph-name="Idieresis" unicode="&#xcf;" horiz-adv-x="686" 
d="M131 1612q-49 0 -84 33.5t-35 83t35 84t84 34.5t83 -34.5t34 -84t-34 -83t-83 -33.5zM534.5 1612q-49.5 0 -83 33.5t-33.5 83t33.5 84t83 34.5t84 -34.5t34.5 -84t-34.5 -83t-84 -33.5zM336 0q-90 0 -90 90v1409h102q90 0 90 -90v-1409h-102z" />
    <glyph glyph-name="Eth" unicode="&#xd0;" horiz-adv-x="1646" 
d="M246 0v668h-180v88q0 88 90 88h90v655h571q317 0 522 -188q217 -201 217 -561q0 -362 -219 -566q-201 -184 -520 -184h-571zM438 158h355q76 0 146.5 13t150 52t138 101.5t97.5 172t39 251.5q0 143 -40 252.5t-99.5 172t-139 101.5t-149.5 52t-143 13h-355v-495h271v-86
q0 -90 -91 -90h-180v-510z" />
    <glyph glyph-name="Ntilde" unicode="&#xd1;" horiz-adv-x="1605" 
d="M948 1610q-74 0 -125 32.5t-92 64.5t-88 32q-41 0 -74 -33q-37 -35 -53 -42t-61 5l-43 21q74 182 233 182q80 0 159 -63.5t138 -63.5q45 0 82 43q61 72 119 39l41 -23q-27 -78 -86.5 -136t-149.5 -58zM178 0v1499h39l1036 -1069v979q0 90 90 90h101v-1499h-35l-1040 1077
v-987q0 -90 -90 -90h-101z" />
    <glyph glyph-name="Ograve" unicode="&#xd2;" horiz-adv-x="1705" 
d="M864 1632q-61 0 -110 37l-191 146l111 49q74 35 123 -33l149 -199h-82zM860 -31q-328 0 -547 226.5t-219 554.5q0 326 219 553t547 227q332 0 551 -227.5t219 -552.5q0 -328 -219 -554.5t-551 -226.5zM860 141q238 0 408 181.5t170 427.5q0 244 -170 425t-408 181
q-236 0 -405.5 -181.5t-169.5 -425t169.5 -426t405.5 -182.5z" />
    <glyph glyph-name="Oacute" unicode="&#xd3;" horiz-adv-x="1705" 
d="M766 1632l154 201q49 63 122 31l109 -49l-186 -144q-49 -39 -113 -39h-86zM860 -31q-328 0 -547 226.5t-219 554.5q0 326 219 553t547 227q332 0 551 -227.5t219 -552.5q0 -328 -219 -554.5t-551 -226.5zM860 141q238 0 408 181.5t170 427.5q0 244 -170 425t-408 181
q-236 0 -405.5 -181.5t-169.5 -425t169.5 -426t405.5 -182.5z" />
    <glyph glyph-name="Ocircumflex" unicode="&#xd4;" horiz-adv-x="1705" 
d="M571 1597l195 250h197l198 -250h-106q-68 0 -111 52l-84 94l-72 -92q-41 -53 -110 -54h-107zM860 -31q-328 0 -547 226.5t-219 554.5q0 326 219 553t547 227q332 0 551 -227.5t219 -552.5q0 -328 -219 -554.5t-551 -226.5zM860 141q238 0 408 181.5t170 427.5
q0 244 -170 425t-408 181q-236 0 -405.5 -181.5t-169.5 -425t169.5 -426t405.5 -182.5z" />
    <glyph glyph-name="Otilde" unicode="&#xd5;" horiz-adv-x="1705" 
d="M1014 1610q-74 0 -125 32.5t-92 64.5t-88 32q-41 0 -74 -33q-37 -35 -53.5 -42t-61.5 5l-43 21q74 182 234 182q80 0 158.5 -63.5t138.5 -63.5q45 0 82 43q61 72 118 39l41 -23q-27 -78 -86 -136t-149 -58zM860 -31q-328 0 -547 226.5t-219 554.5q0 326 219 553t547 227
q332 0 551 -227.5t219 -552.5q0 -328 -219 -554.5t-551 -226.5zM860 141q238 0 408 181.5t170 427.5q0 244 -170 425t-408 181q-236 0 -405.5 -181.5t-169.5 -425t169.5 -426t405.5 -182.5z" />
    <glyph glyph-name="Odieresis" unicode="&#xd6;" horiz-adv-x="1705" 
d="M663.5 1612q-49.5 0 -84 33.5t-34.5 83t34.5 84t84 34.5t83 -34.5t33.5 -84t-33.5 -83t-83 -33.5zM1067 1612q-49 0 -83 33.5t-34 83t34 84t83 34.5t84 -34.5t35 -84t-35 -83t-84 -33.5zM860 -31q-328 0 -547 226.5t-219 554.5q0 326 219 553t547 227q332 0 551 -227.5
t219 -552.5q0 -328 -219 -554.5t-551 -226.5zM860 141q238 0 408 181.5t170 427.5q0 244 -170 425t-408 181q-236 0 -405.5 -181.5t-169.5 -425t169.5 -426t405.5 -182.5z" />
    <glyph glyph-name="multiply" unicode="&#xd7;" horiz-adv-x="1015" 
d="M784 371l-282 288l-213 -219q-61 -66 -127 0l-60 58l283 286l-217 220q-63 63 -2 126l57 60l279 -281l221 219q63 63 127 0l61 -59l-284 -287l219 -223q59 -61 -2 -127z" />
    <glyph glyph-name="Oslash" unicode="&#xd8;" horiz-adv-x="1705" 
d="M860 -31q-244 0 -440 142l-58 -68q-59 -70 -126 -10l-46 37l119 139q-215 225 -215 541q0 326 219 553t547 227q252 0 453 -150l69 82q59 70 127 11l45 -37l-133 -154q209 -225 209 -532q0 -328 -219 -554.5t-551 -226.5zM430 350l762 891q-152 115 -332 115
q-236 0 -405.5 -181.5t-169.5 -424.5q0 -224 145 -400zM860 141q238 0 408 181.5t170 427.5q0 215 -140 387l-759 -889q145 -107 321 -107z" />
    <glyph glyph-name="Ugrave" unicode="&#xd9;" horiz-adv-x="1589" 
d="M856 1632q-61 0 -111 37l-190 146l111 49q74 35 122 -33l150 -199h-82zM803 -29q-283 0 -454 170t-171 453v905h101q90 0 90 -90v-805q0 -131 44 -227t113.5 -145.5t138 -71t138 -21.5t138.5 21.5t138.5 71t113.5 145.5t44 227v805q0 90 90 90h100v-905
q0 -285 -169.5 -454t-454.5 -169z" />
    <glyph glyph-name="Uacute" unicode="&#xda;" horiz-adv-x="1589" 
d="M653 1632l154 201q49 63 123 31l108 -49l-186 -144q-49 -39 -113 -39h-86zM803 -29q-283 0 -454 170t-171 453v905h101q90 0 90 -90v-805q0 -131 44 -227t113.5 -145.5t138 -71t138 -21.5t138.5 21.5t138.5 71t113.5 145.5t44 227v805q0 90 90 90h100v-905
q0 -285 -169.5 -454t-454.5 -169z" />
    <glyph glyph-name="Ucircumflex" unicode="&#xdb;" horiz-adv-x="1589" 
d="M510 1597l195 250h196l199 -250h-107q-68 0 -110 52l-84 94l-72 -92q-41 -53 -111 -54h-106zM803 -29q-283 0 -454 170t-171 453v905h101q90 0 90 -90v-805q0 -131 44 -227t113.5 -145.5t138 -71t138 -21.5t138.5 21.5t138.5 71t113.5 145.5t44 227v805q0 90 90 90h100
v-905q0 -285 -169.5 -454t-454.5 -169z" />
    <glyph glyph-name="Udieresis" unicode="&#xdc;" horiz-adv-x="1589" 
d="M592 1612q-49 0 -84 33.5t-35 83t35 84t84 34.5t83 -34.5t34 -84t-34 -83t-83 -33.5zM995 1612q-49 0 -82.5 33.5t-33.5 83t33.5 84t82.5 34.5t84 -34.5t35 -84t-35 -83t-84 -33.5zM803 -29q-283 0 -454 170t-171 453v905h101q90 0 90 -90v-805q0 -131 44 -227
t113.5 -145.5t138 -71t138 -21.5t138.5 21.5t138.5 71t113.5 145.5t44 227v805q0 90 90 90h100v-905q0 -285 -169.5 -454t-454.5 -169z" />
    <glyph glyph-name="Yacute" unicode="&#xdd;" horiz-adv-x="1429" 
d="M555 1632l154 201q49 63 122 31l109 -49l-186 -144q-49 -39 -113 -39h-86zM625 0v571l-557 928h149q74 0 109 -61l395 -678l397 678q35 61 109 61h151l-561 -932v-477q0 -90 -90 -90h-102z" />
    <glyph glyph-name="Thorn" unicode="&#xde;" horiz-adv-x="1433" 
d="M270 0q-90 0 -90 90v1409h103q90 0 90 -90v-145h461q211 0 359 -150.5t148 -365.5q0 -221 -145 -361.5t-414 -140.5h-409v-246h-103zM373 408h420q170 0 263 99t93 241q0 143 -97.5 249.5t-271.5 106.5h-407v-696z" />
    <glyph glyph-name="germandbls" unicode="&#xdf;" horiz-adv-x="2713" 
d="M743 -31q-354 0 -602 203l54 66q51 63 124 16q182 -115 418 -115q170 0 265.5 75t95.5 192q0 66 -31 112.5t-93.5 76.5t-125 47t-158.5 34q-233 41 -332 86q-227 102 -227 332q0 96 34 171.5t89 123t128 79t145.5 44t148.5 12.5q289 0 516 -162l-49 -72q-47 -70 -125 -26
q-160 90 -354 90q-125 0 -232.5 -63.5t-107.5 -192.5q0 -61 38.5 -107.5t129 -79t134.5 -44t156 -33.5q18 -4 27 -7q66 -14 100.5 -22t102 -29.5t107.5 -50.5t84 -72t64.5 -106.5t20.5 -140.5q0 -217 -153.5 -327t-391.5 -110zM2085 -31q-354 0 -602 203l53 66q51 63 125 16
q182 -115 418 -115q170 0 265 75t95 192q0 66 -30.5 112.5t-93 76.5t-125 47t-158.5 34q-233 41 -332 86q-227 102 -227 332q0 96 33.5 171.5t89 123t128 79t145.5 44t148 12.5q289 0 516 -162l-49 -72q-47 -70 -125 -26q-160 90 -354 90q-125 0 -232.5 -63.5t-107.5 -192.5
q0 -61 39 -107.5t129 -79t134 -44t157 -33.5q18 -4 26 -7q66 -14 101 -22t102.5 -29.5t107.5 -50.5t84 -72t64.5 -106.5t20.5 -140.5q0 -217 -153.5 -327t-391.5 -110z" />
    <glyph glyph-name="agrave" unicode="&#xe0;" 
d="M770 1632q-61 0 -111 37l-190 146l111 49q74 35 122 -33l150 -199h-82zM23 0l737 1499h41l737 -1499h-145q-74 0 -105 68l-102 217h-813l-103 -217q-31 -68 -104 -68h-143zM455 446h651l-324 695z" />
    <glyph glyph-name="aacute" unicode="&#xe1;" 
d="M692 1632l154 201q49 63 123 31l108 -49l-186 -144q-49 -39 -113 -39h-86zM23 0l737 1499h41l737 -1499h-145q-74 0 -105 68l-102 217h-813l-103 -217q-31 -68 -104 -68h-143zM455 446h651l-324 695z" />
    <glyph glyph-name="acircumflex" unicode="&#xe2;" 
d="M487 1597l195 250h197l198 -250h-106q-68 0 -111 52l-84 94l-71 -92q-41 -53 -111 -54h-107zM23 0l737 1499h41l737 -1499h-145q-74 0 -105 68l-102 217h-813l-103 -217q-31 -68 -104 -68h-143zM455 446h651l-324 695z" />
    <glyph glyph-name="atilde" unicode="&#xe3;" 
d="M938 1610q-74 0 -125 32.5t-92 64.5t-88 32q-41 0 -74 -33q-37 -35 -53.5 -42t-61.5 5l-43 21q74 182 234 182q80 0 158.5 -63.5t138.5 -63.5q45 0 82 43q61 72 119 39l41 -23q-27 -78 -86.5 -136t-149.5 -58zM23 0l737 1499h41l737 -1499h-145q-74 0 -105 68l-102 217
h-813l-103 -217q-31 -68 -104 -68h-143zM455 446h651l-324 695z" />
    <glyph glyph-name="adieresis" unicode="&#xe4;" 
d="M581.5 1612q-49.5 0 -84 33.5t-34.5 83t34.5 84t84 34.5t83 -34.5t33.5 -84t-33.5 -83t-83 -33.5zM985 1612q-49 0 -83 33.5t-34 83t34 84t83 34.5t84 -34.5t35 -84t-35 -83t-84 -33.5zM23 0l737 1499h41l737 -1499h-145q-74 0 -105 68l-102 217h-813l-103 -217
q-31 -68 -104 -68h-143zM455 446h651l-324 695z" />
    <glyph glyph-name="aring" unicode="&#xe5;" 
d="M23 0l718 1464q-68 16 -112.5 71.5t-44.5 127.5q0 82 58 141.5t142 59.5t141.5 -58.5t57.5 -142.5q0 -74 -47 -131t-117 -70l719 -1462h-145q-74 0 -105 68l-102 217h-813l-103 -217q-31 -68 -104 -68h-143zM784 1563q41 0 69 28.5t28 71.5q0 41 -28 69.5t-69 28.5
q-43 0 -69.5 -27.5t-26.5 -70.5t26.5 -71.5t69.5 -28.5zM455 446h651l-324 695z" />
    <glyph glyph-name="ae" unicode="&#xe6;" horiz-adv-x="2142" 
d="M41 0l973 1501h1057v-74q0 -90 -91 -90h-778v-512h709v-77q0 -90 -90 -91h-619v-491h776q41 0 67 -25.5t26 -66.5v-74h-1059v289h-572l-151 -230q-39 -59 -109 -59h-139zM545 449h467v749z" />
    <glyph glyph-name="ccedilla" unicode="&#xe7;" horiz-adv-x="1587" 
d="M1272 322q57 63 125 28l98 -47q-193 -322 -606 -336l-25 -59q51 20 111 4q100 -31 90 -152q-10 -152 -193 -151q-84 2 -145 43q31 68 86 55q27 -6 57 -6q37 0 64 19.5t24 54.5q-4 63 -90 63q-70 -4 -96 -18l-16 26l49 123q-313 20 -515 243.5t-202 535.5q0 328 219 554
t551 226q205 0 372 -92.5t267 -249.5l-102 -43q-70 -29 -123 31q-164 178 -414 178q-248 0 -412.5 -176.5t-164.5 -428t164.5 -428t412.5 -176.5q246 1 414 179z" />
    <glyph glyph-name="egrave" unicode="&#xe8;" horiz-adv-x="1378" 
d="M743 1632q-61 0 -110 37l-191 146l111 49q74 35 123 -33l149 -199h-82zM180 0v1499h1057v-69q0 -90 -90 -91h-774v-516h702v-73q0 -90 -90 -91h-612v-495h774q90 0 90 -90v-74h-1057z" />
    <glyph glyph-name="eacute" unicode="&#xe9;" horiz-adv-x="1378" 
d="M563 1632l154 201q49 63 123 31l108 -49l-186 -144q-49 -39 -113 -39h-86zM180 0v1499h1057v-69q0 -90 -90 -91h-774v-516h702v-73q0 -90 -90 -91h-612v-495h774q90 0 90 -90v-74h-1057z" />
    <glyph glyph-name="ecircumflex" unicode="&#xea;" horiz-adv-x="1378" 
d="M434 1597l195 250h196l199 -250h-106q-68 0 -111 52l-84 94l-72 -92q-41 -53 -110 -54h-107zM180 0v1499h1057v-69q0 -90 -90 -91h-774v-516h702v-73q0 -90 -90 -91h-612v-495h774q90 0 90 -90v-74h-1057z" />
    <glyph glyph-name="edieresis" unicode="&#xeb;" horiz-adv-x="1378" 
d="M502 1612q-49 0 -84 33.5t-35 83t35 84t84 34.5t82.5 -34.5t33.5 -84t-33.5 -83t-82.5 -33.5zM905 1612q-49 0 -83 33.5t-34 83t34 84t83 34.5t84 -34.5t35 -84t-35 -83t-84 -33.5zM180 0v1499h1057v-69q0 -90 -90 -91h-774v-516h702v-73q0 -90 -90 -91h-612v-495h774
q90 0 90 -90v-74h-1057z" />
    <glyph glyph-name="igrave" unicode="&#xec;" horiz-adv-x="686" 
d="M348 1632q-61 0 -110 37l-191 146l111 49q74 35 123 -33l149 -199h-82zM336 0q-90 0 -90 90v1409h102q90 0 90 -90v-1409h-102z" />
    <glyph glyph-name="iacute" unicode="&#xed;" horiz-adv-x="686" 
d="M238 1632l153 201q49 63 123 31l109 -49l-187 -144q-49 -39 -112 -39h-86zM336 0q-90 0 -90 90v1409h102q90 0 90 -90v-1409h-102z" />
    <glyph glyph-name="icircumflex" unicode="&#xee;" horiz-adv-x="686" 
d="M43 1597l195 250h196l199 -250h-107q-68 0 -110 52l-84 94l-72 -92q-41 -53 -110 -54h-107zM336 0q-90 0 -90 90v1409h102q90 0 90 -90v-1409h-102z" />
    <glyph glyph-name="idieresis" unicode="&#xef;" horiz-adv-x="686" 
d="M131 1612q-49 0 -84 33.5t-35 83t35 84t84 34.5t83 -34.5t34 -84t-34 -83t-83 -33.5zM534.5 1612q-49.5 0 -83 33.5t-33.5 83t33.5 84t83 34.5t84 -34.5t34.5 -84t-34.5 -83t-84 -33.5zM336 0q-90 0 -90 90v1409h102q90 0 90 -90v-1409h-102z" />
    <glyph glyph-name="eth" unicode="&#xf0;" horiz-adv-x="1646" 
d="M246 0v668h-180v88q0 88 90 88h90v655h571q317 0 522 -188q217 -201 217 -561q0 -362 -219 -566q-201 -184 -520 -184h-571zM438 158h355q76 0 146.5 13t150 52t138 101.5t97.5 172t39 251.5q0 143 -40 252.5t-99.5 172t-139 101.5t-149.5 52t-143 13h-355v-495h271v-86
q0 -90 -91 -90h-180v-510z" />
    <glyph glyph-name="ntilde" unicode="&#xf1;" horiz-adv-x="1605" 
d="M948 1610q-74 0 -125 32.5t-92 64.5t-88 32q-41 0 -74 -33q-37 -35 -53 -42t-61 5l-43 21q74 182 233 182q80 0 159 -63.5t138 -63.5q45 0 82 43q61 72 119 39l41 -23q-27 -78 -86.5 -136t-149.5 -58zM178 0v1499h39l1036 -1069v979q0 90 90 90h101v-1499h-35l-1040 1077
v-987q0 -90 -90 -90h-101z" />
    <glyph glyph-name="ograve" unicode="&#xf2;" horiz-adv-x="1705" 
d="M864 1632q-61 0 -110 37l-191 146l111 49q74 35 123 -33l149 -199h-82zM860 -31q-328 0 -547 226.5t-219 554.5q0 326 219 553t547 227q332 0 551 -227.5t219 -552.5q0 -328 -219 -554.5t-551 -226.5zM860 141q238 0 408 181.5t170 427.5q0 244 -170 425t-408 181
q-236 0 -405.5 -181.5t-169.5 -425t169.5 -426t405.5 -182.5z" />
    <glyph glyph-name="oacute" unicode="&#xf3;" horiz-adv-x="1705" 
d="M766 1632l154 201q49 63 122 31l109 -49l-186 -144q-49 -39 -113 -39h-86zM860 -31q-328 0 -547 226.5t-219 554.5q0 326 219 553t547 227q332 0 551 -227.5t219 -552.5q0 -328 -219 -554.5t-551 -226.5zM860 141q238 0 408 181.5t170 427.5q0 244 -170 425t-408 181
q-236 0 -405.5 -181.5t-169.5 -425t169.5 -426t405.5 -182.5z" />
    <glyph glyph-name="ocircumflex" unicode="&#xf4;" horiz-adv-x="1705" 
d="M571 1597l195 250h197l198 -250h-106q-68 0 -111 52l-84 94l-72 -92q-41 -53 -110 -54h-107zM860 -31q-328 0 -547 226.5t-219 554.5q0 326 219 553t547 227q332 0 551 -227.5t219 -552.5q0 -328 -219 -554.5t-551 -226.5zM860 141q238 0 408 181.5t170 427.5
q0 244 -170 425t-408 181q-236 0 -405.5 -181.5t-169.5 -425t169.5 -426t405.5 -182.5z" />
    <glyph glyph-name="otilde" unicode="&#xf5;" horiz-adv-x="1705" 
d="M1014 1610q-74 0 -125 32.5t-92 64.5t-88 32q-41 0 -74 -33q-37 -35 -53.5 -42t-61.5 5l-43 21q74 182 234 182q80 0 158.5 -63.5t138.5 -63.5q45 0 82 43q61 72 118 39l41 -23q-27 -78 -86 -136t-149 -58zM860 -31q-328 0 -547 226.5t-219 554.5q0 326 219 553t547 227
q332 0 551 -227.5t219 -552.5q0 -328 -219 -554.5t-551 -226.5zM860 141q238 0 408 181.5t170 427.5q0 244 -170 425t-408 181q-236 0 -405.5 -181.5t-169.5 -425t169.5 -426t405.5 -182.5z" />
    <glyph glyph-name="odieresis" unicode="&#xf6;" horiz-adv-x="1705" 
d="M663.5 1612q-49.5 0 -84 33.5t-34.5 83t34.5 84t84 34.5t83 -34.5t33.5 -84t-33.5 -83t-83 -33.5zM1067 1612q-49 0 -83 33.5t-34 83t34 84t83 34.5t84 -34.5t35 -84t-35 -83t-84 -33.5zM860 -31q-328 0 -547 226.5t-219 554.5q0 326 219 553t547 227q332 0 551 -227.5
t219 -552.5q0 -328 -219 -554.5t-551 -226.5zM860 141q238 0 408 181.5t170 427.5q0 244 -170 425t-408 181q-236 0 -405.5 -181.5t-169.5 -425t169.5 -426t405.5 -182.5z" />
    <glyph glyph-name="divide" unicode="&#xf7;" horiz-adv-x="1234" 
d="M616 1145q-45 0 -76.5 31.5t-31.5 76.5q0 47 31.5 78t76.5 31q47 0 77 -31t30 -78q0 -45 -30 -76.5t-77 -31.5zM115 684v66q0 90 90 90h913v-66q0 -90 -90 -90h-913zM616 164q-45 0 -76.5 31.5t-31.5 78.5q0 45 31.5 76t76.5 31q47 0 77 -31t30 -76q0 -47 -30 -78.5
t-77 -31.5z" />
    <glyph glyph-name="oslash" unicode="&#xf8;" horiz-adv-x="1705" 
d="M860 -31q-244 0 -440 142l-58 -68q-59 -70 -126 -10l-46 37l119 139q-215 225 -215 541q0 326 219 553t547 227q252 0 453 -150l69 82q59 70 127 11l45 -37l-133 -154q209 -225 209 -532q0 -328 -219 -554.5t-551 -226.5zM430 350l762 891q-152 115 -332 115
q-236 0 -405.5 -181.5t-169.5 -424.5q0 -224 145 -400zM860 141q238 0 408 181.5t170 427.5q0 215 -140 387l-759 -889q145 -107 321 -107z" />
    <glyph glyph-name="ugrave" unicode="&#xf9;" horiz-adv-x="1589" 
d="M856 1632q-61 0 -111 37l-190 146l111 49q74 35 122 -33l150 -199h-82zM803 -29q-283 0 -454 170t-171 453v905h101q90 0 90 -90v-805q0 -131 44 -227t113.5 -145.5t138 -71t138 -21.5t138.5 21.5t138.5 71t113.5 145.5t44 227v805q0 90 90 90h100v-905
q0 -285 -169.5 -454t-454.5 -169z" />
    <glyph glyph-name="uacute" unicode="&#xfa;" horiz-adv-x="1589" 
d="M653 1632l154 201q49 63 123 31l108 -49l-186 -144q-49 -39 -113 -39h-86zM803 -29q-283 0 -454 170t-171 453v905h101q90 0 90 -90v-805q0 -131 44 -227t113.5 -145.5t138 -71t138 -21.5t138.5 21.5t138.5 71t113.5 145.5t44 227v805q0 90 90 90h100v-905
q0 -285 -169.5 -454t-454.5 -169z" />
    <glyph glyph-name="ucircumflex" unicode="&#xfb;" horiz-adv-x="1589" 
d="M510 1597l195 250h196l199 -250h-107q-68 0 -110 52l-84 94l-72 -92q-41 -53 -111 -54h-106zM803 -29q-283 0 -454 170t-171 453v905h101q90 0 90 -90v-805q0 -131 44 -227t113.5 -145.5t138 -71t138 -21.5t138.5 21.5t138.5 71t113.5 145.5t44 227v805q0 90 90 90h100
v-905q0 -285 -169.5 -454t-454.5 -169z" />
    <glyph glyph-name="udieresis" unicode="&#xfc;" horiz-adv-x="1589" 
d="M592 1612q-49 0 -84 33.5t-35 83t35 84t84 34.5t83 -34.5t34 -84t-34 -83t-83 -33.5zM995 1612q-49 0 -82.5 33.5t-33.5 83t33.5 84t82.5 34.5t84 -34.5t35 -84t-35 -83t-84 -33.5zM803 -29q-283 0 -454 170t-171 453v905h101q90 0 90 -90v-805q0 -131 44 -227
t113.5 -145.5t138 -71t138 -21.5t138.5 21.5t138.5 71t113.5 145.5t44 227v805q0 90 90 90h100v-905q0 -285 -169.5 -454t-454.5 -169z" />
    <glyph glyph-name="yacute" unicode="&#xfd;" horiz-adv-x="1429" 
d="M555 1632l154 201q49 63 122 31l109 -49l-186 -144q-49 -39 -113 -39h-86zM625 0v571l-557 928h149q74 0 109 -61l395 -678l397 678q35 61 109 61h151l-561 -932v-477q0 -90 -90 -90h-102z" />
    <glyph glyph-name="thorn" unicode="&#xfe;" horiz-adv-x="1433" 
d="M270 0q-90 0 -90 90v1409h103q90 0 90 -90v-145h461q211 0 359 -150.5t148 -365.5q0 -221 -145 -361.5t-414 -140.5h-409v-246h-103zM373 408h420q170 0 263 99t93 241q0 143 -97.5 249.5t-271.5 106.5h-407v-696z" />
    <glyph glyph-name="ydieresis" unicode="&#xff;" horiz-adv-x="1429" 
d="M516 1612q-49 0 -84 33.5t-35 83t35 84t84 34.5t83 -34.5t34 -84t-34 -83t-83 -33.5zM919.5 1612q-49.5 0 -83 33.5t-33.5 83t33.5 84t83 34.5t84 -34.5t34.5 -84t-34.5 -83t-84 -33.5zM625 0v571l-557 928h149q74 0 109 -61l395 -678l397 678q35 61 109 61h151
l-561 -932v-477q0 -90 -90 -90h-102z" />
    <glyph glyph-name="Amacron" unicode="&#x100;" 
d="M483 1624v53q0 90 90 90h504v-53q0 -90 -90 -90h-504zM23 0l737 1499h41l737 -1499h-145q-74 0 -105 68l-102 217h-813l-103 -217q-31 -68 -104 -68h-143zM455 446h651l-324 695z" />
    <glyph glyph-name="amacron" unicode="&#x101;" 
d="M483 1624v53q0 90 90 90h504v-53q0 -90 -90 -90h-504zM23 0l737 1499h41l737 -1499h-145q-74 0 -105 68l-102 217h-813l-103 -217q-31 -68 -104 -68h-143zM455 446h651l-324 695z" />
    <glyph glyph-name="Abreve" unicode="&#x102;" 
d="M782 1624q-127 0 -225 77t-127 195h68q61 0 106 -63q66 -82 180 -82q104 0 172 84q47 61 109 61h72q-31 -117 -128.5 -194.5t-226.5 -77.5zM23 0l737 1499h41l737 -1499h-145q-74 0 -105 68l-102 217h-813l-103 -217q-31 -68 -104 -68h-143zM455 446h651l-324 695z" />
    <glyph glyph-name="abreve" unicode="&#x103;" 
d="M782 1624q-127 0 -225 77t-127 195h68q61 0 106 -63q66 -82 180 -82q104 0 172 84q47 61 109 61h72q-31 -117 -128.5 -194.5t-226.5 -77.5zM23 0l737 1499h41l737 -1499h-145q-74 0 -105 68l-102 217h-813l-103 -217q-31 -68 -104 -68h-143zM455 446h651l-324 695z" />
    <glyph glyph-name="Aogonek" unicode="&#x104;" 
d="M1659 -301l22 -51q-57 -27 -153 -27q-111 0 -184.5 68.5t-73.5 165.5q0 94 55 165q-25 14 -37 48l-102 217h-813l-103 -217q-31 -68 -104 -68h-143l737 1499h41l737 -1499q-18 -2 -40.5 -9t-54.5 -39t-32 -79q0 -53 35 -85t92 -32h8q84 4 113 -57zM455 446h651l-324 695z
" />
    <glyph glyph-name="aogonek" unicode="&#x105;" 
d="M1659 -301l22 -51q-57 -27 -153 -27q-111 0 -184.5 68.5t-73.5 165.5q0 94 55 165q-25 14 -37 48l-102 217h-813l-103 -217q-31 -68 -104 -68h-143l737 1499h41l737 -1499q-18 -2 -40.5 -9t-54.5 -39t-32 -79q0 -53 35 -85t92 -32h8q84 4 113 -57zM455 446h651l-324 695z
" />
    <glyph glyph-name="Cacute" unicode="&#x106;" horiz-adv-x="1587" 
d="M705 1632l153 201q49 63 123 31l109 -49l-187 -144q-49 -39 -112 -39h-86zM858 -33q-332 0 -551 226.5t-219 554t219 554t551 226.5q205 0 372 -92.5t267 -249.5l-102 -43q-70 -29 -123 31q-164 178 -414 178q-248 0 -412.5 -176.5t-164.5 -428t164.5 -428t412.5 -176.5
q246 0 414 179q57 63 125 28l98 -47q-94 -158 -256 -247t-381 -89z" />
    <glyph glyph-name="cacute" unicode="&#x107;" horiz-adv-x="1587" 
d="M705 1632l153 201q49 63 123 31l109 -49l-187 -144q-49 -39 -112 -39h-86zM858 -33q-332 0 -551 226.5t-219 554t219 554t551 226.5q205 0 372 -92.5t267 -249.5l-102 -43q-70 -29 -123 31q-164 178 -414 178q-248 0 -412.5 -176.5t-164.5 -428t164.5 -428t412.5 -176.5
q246 0 414 179q57 63 125 28l98 -47q-94 -158 -256 -247t-381 -89z" />
    <glyph glyph-name="Ccaron" unicode="&#x10c;" horiz-adv-x="1587" 
d="M762 1616l-197 250h107q68 0 110 -51l78 -95l78 95q43 51 111 51h106l-197 -250h-196zM858 -33q-332 0 -551 226.5t-219 554t219 554t551 226.5q205 0 372 -92.5t267 -249.5l-102 -43q-70 -29 -123 31q-164 178 -414 178q-248 0 -412.5 -176.5t-164.5 -428t164.5 -428
t412.5 -176.5q246 0 414 179q57 63 125 28l98 -47q-94 -158 -256 -247t-381 -89z" />
    <glyph glyph-name="ccaron" unicode="&#x10d;" horiz-adv-x="1587" 
d="M762 1616l-197 250h107q68 0 110 -51l78 -95l78 95q43 51 111 51h106l-197 -250h-196zM858 -33q-332 0 -551 226.5t-219 554t219 554t551 226.5q205 0 372 -92.5t267 -249.5l-102 -43q-70 -29 -123 31q-164 178 -414 178q-248 0 -412.5 -176.5t-164.5 -428t164.5 -428
t412.5 -176.5q246 0 414 179q57 63 125 28l98 -47q-94 -158 -256 -247t-381 -89z" />
    <glyph glyph-name="Dcaron" unicode="&#x10e;" horiz-adv-x="1585" 
d="M649 1616l-196 250h106q68 0 111 -51l78 -95l77 95q43 51 111 51h106l-196 -250h-197zM178 0v1499h570q317 0 522 -188q219 -203 219 -561q0 -360 -221 -566q-201 -184 -520 -184h-570zM371 162h352q76 0 146.5 12t150.5 51t138.5 101.5t97 171t38.5 250.5
q0 143 -38.5 251.5t-98 171t-140.5 101.5t-150.5 52t-143.5 13h-352v-1175z" />
    <glyph glyph-name="dcaron" unicode="&#x10f;" horiz-adv-x="1585" 
d="M649 1616l-196 250h106q68 0 111 -51l78 -95l77 95q43 51 111 51h106l-196 -250h-197zM178 0v1499h570q317 0 522 -188q219 -203 219 -561q0 -360 -221 -566q-201 -184 -520 -184h-570zM371 162h352q76 0 146.5 12t150.5 51t138.5 101.5t97 171t38.5 250.5
q0 143 -38.5 251.5t-98 171t-140.5 101.5t-150.5 52t-143.5 13h-352v-1175z" />
    <glyph glyph-name="Dcroat" unicode="&#x110;" horiz-adv-x="1646" 
d="M246 0v668h-180v88q0 88 90 88h90v655h571q317 0 522 -188q217 -201 217 -561q0 -362 -219 -566q-201 -184 -520 -184h-571zM438 158h355q76 0 146.5 13t150 52t138 101.5t97.5 172t39 251.5q0 143 -40 252.5t-99.5 172t-139 101.5t-149.5 52t-143 13h-355v-495h271v-86
q0 -90 -91 -90h-180v-510z" />
    <glyph glyph-name="dcroat" unicode="&#x111;" horiz-adv-x="1646" 
d="M246 0v668h-180v88q0 88 90 88h90v655h571q317 0 522 -188q217 -201 217 -561q0 -362 -219 -566q-201 -184 -520 -184h-571zM438 158h355q76 0 146.5 13t150 52t138 101.5t97.5 172t39 251.5q0 143 -40 252.5t-99.5 172t-139 101.5t-149.5 52t-143 13h-355v-495h271v-86
q0 -90 -91 -90h-180v-510z" />
    <glyph glyph-name="Emacron" unicode="&#x112;" horiz-adv-x="1378" 
d="M430 1624v53q0 90 90 90h504v-53q0 -90 -90 -90h-504zM180 0v1499h1057v-69q0 -90 -90 -91h-774v-516h702v-73q0 -90 -90 -91h-612v-495h774q90 0 90 -90v-74h-1057z" />
    <glyph glyph-name="emacron" unicode="&#x113;" horiz-adv-x="1378" 
d="M430 1624v53q0 90 90 90h504v-53q0 -90 -90 -90h-504zM180 0v1499h1057v-69q0 -90 -90 -91h-774v-516h702v-73q0 -90 -90 -91h-612v-495h774q90 0 90 -90v-74h-1057z" />
    <glyph glyph-name="Edotaccent" unicode="&#x116;" horiz-adv-x="1378" 
d="M717 1614q-49 0 -84 33.5t-35 83t35 84t84 34.5t83 -34.5t34 -84t-34 -83t-83 -33.5zM180 0v1499h1057v-69q0 -90 -90 -91h-774v-516h702v-73q0 -90 -90 -91h-612v-495h774q90 0 90 -90v-74h-1057z" />
    <glyph glyph-name="edotaccent" unicode="&#x117;" horiz-adv-x="1378" 
d="M717 1614q-49 0 -84 33.5t-35 83t35 84t84 34.5t83 -34.5t34 -84t-34 -83t-83 -33.5zM180 0v1499h1057v-69q0 -90 -90 -91h-774v-516h702v-73q0 -90 -90 -91h-612v-495h774q90 0 90 -90v-74h-1057z" />
    <glyph glyph-name="Eogonek" unicode="&#x118;" horiz-adv-x="1378" 
d="M1241 -301l23 -51q-57 -27 -154 -27q-111 0 -184.5 68.5t-73.5 165.5q0 86 41 145h-713v1499h1057v-69q0 -90 -90 -91h-774v-516h702v-73q0 -90 -90 -91h-612v-495h774q90 0 90 -90v-74h-117q-18 0 -34.5 -4t-40 -14.5t-38 -39t-14.5 -69.5q0 -53 35 -85t92 -32h8
q84 4 113 -57z" />
    <glyph glyph-name="eogonek" unicode="&#x119;" horiz-adv-x="1378" 
d="M1241 -301l23 -51q-57 -27 -154 -27q-111 0 -184.5 68.5t-73.5 165.5q0 86 41 145h-713v1499h1057v-69q0 -90 -90 -91h-774v-516h702v-73q0 -90 -90 -91h-612v-495h774q90 0 90 -90v-74h-117q-18 0 -34.5 -4t-40 -14.5t-38 -39t-14.5 -69.5q0 -53 35 -85t92 -32h8
q84 4 113 -57z" />
    <glyph glyph-name="Ecaron" unicode="&#x11a;" horiz-adv-x="1378" 
d="M625 1616l-197 250h107q68 0 110 -51l78 -95l78 95q43 51 110 51h107l-197 -250h-196zM180 0v1499h1057v-69q0 -90 -90 -91h-774v-516h702v-73q0 -90 -90 -91h-612v-495h774q90 0 90 -90v-74h-1057z" />
    <glyph glyph-name="ecaron" unicode="&#x11b;" horiz-adv-x="1378" 
d="M625 1616l-197 250h107q68 0 110 -51l78 -95l78 95q43 51 110 51h107l-197 -250h-196zM180 0v1499h1057v-69q0 -90 -90 -91h-774v-516h702v-73q0 -90 -90 -91h-612v-495h774q90 0 90 -90v-74h-1057z" />
    <glyph glyph-name="Gbreve" unicode="&#x11e;" horiz-adv-x="1671" 
d="M852 1624q-127 0 -225.5 77t-126.5 195h67q61 0 107 -63q66 -82 180 -82q104 0 172 84q47 61 109 61h71q-31 -117 -128 -194.5t-226 -77.5zM852 -31q-328 0 -546 226.5t-218 552.5q0 322 224.5 551t541.5 229q178 0 338 -80t266 -217l-94 -60q-68 -41 -125 19
q-168 164 -385 164q-236 0 -405.5 -181.5t-169.5 -424.5q0 -248 163.5 -426.5t409.5 -178.5q242 0 387 126t162 335h-510q-90 0 -90 90v74h798q4 -59 -4 -152q-25 -293 -217 -470t-526 -177z" />
    <glyph glyph-name="gbreve" unicode="&#x11f;" horiz-adv-x="1671" 
d="M852 1624q-127 0 -225.5 77t-126.5 195h67q61 0 107 -63q66 -82 180 -82q104 0 172 84q47 61 109 61h71q-31 -117 -128 -194.5t-226 -77.5zM852 -31q-328 0 -546 226.5t-218 552.5q0 322 224.5 551t541.5 229q178 0 338 -80t266 -217l-94 -60q-68 -41 -125 19
q-168 164 -385 164q-236 0 -405.5 -181.5t-169.5 -424.5q0 -248 163.5 -426.5t409.5 -178.5q242 0 387 126t162 335h-510q-90 0 -90 90v74h798q4 -59 -4 -152q-25 -293 -217 -470t-526 -177z" />
    <glyph glyph-name="uni0122" unicode="&#x122;" horiz-adv-x="1671" 
d="M852 -31q-328 0 -546 226.5t-218 552.5q0 322 224.5 551t541.5 229q178 0 338 -80t266 -217l-94 -60q-68 -41 -125 19q-168 164 -385 164q-236 0 -405.5 -181.5t-169.5 -424.5q0 -248 163.5 -426.5t409.5 -178.5q242 0 387 126t162 335h-510q-90 0 -90 90v74h798
q4 -59 -4 -152q-25 -293 -217 -470t-526 -177zM803 -473l-4 6q-29 41 28 82q51 37 54 90q-45 -4 -78 29t-37 80q-2 47 31 84q35 39 84 39q100 0 125 -93q25 -96 -29 -190q-59 -102 -174 -127z" />
    <glyph glyph-name="uni0123" unicode="&#x123;" horiz-adv-x="1671" 
d="M852 -31q-328 0 -546 226.5t-218 552.5q0 322 224.5 551t541.5 229q178 0 338 -80t266 -217l-94 -60q-68 -41 -125 19q-168 164 -385 164q-236 0 -405.5 -181.5t-169.5 -424.5q0 -248 163.5 -426.5t409.5 -178.5q242 0 387 126t162 335h-510q-90 0 -90 90v74h798
q4 -59 -4 -152q-25 -293 -217 -470t-526 -177zM803 -473l-4 6q-29 41 28 82q51 37 54 90q-45 -4 -78 29t-37 80q-2 47 31 84q35 39 84 39q100 0 125 -93q25 -96 -29 -190q-59 -102 -174 -127z" />
    <glyph glyph-name="Imacron" unicode="&#x12a;" horiz-adv-x="686" 
d="M35 1624v53q0 90 90 90h504v-53q0 -90 -90 -90h-504zM336 0q-90 0 -90 90v1409h102q90 0 90 -90v-1409h-102z" />
    <glyph glyph-name="imacron" unicode="&#x12b;" horiz-adv-x="686" 
d="M35 1624v53q0 90 90 90h504v-53q0 -90 -90 -90h-504zM336 0q-90 0 -90 90v1409h102q90 0 90 -90v-1409h-102z" />
    <glyph glyph-name="Iogonek" unicode="&#x12e;" horiz-adv-x="632" 
d="M539 -301l22 -51q-57 -27 -153 -27q-111 0 -184.5 68.5t-73.5 165.5q0 119 81 196q-6 14 -6 39v1409h103q90 0 90 -90v-1409q-18 -2 -41 -9t-54.5 -39t-31.5 -79q0 -53 34.5 -85t92.5 -32h8q84 4 113 -57z" />
    <glyph glyph-name="iogonek" unicode="&#x12f;" horiz-adv-x="632" 
d="M539 -301l22 -51q-57 -27 -153 -27q-111 0 -184.5 68.5t-73.5 165.5q0 119 81 196q-6 14 -6 39v1409h103q90 0 90 -90v-1409q-18 -2 -41 -9t-54.5 -39t-31.5 -79q0 -53 34.5 -85t92.5 -32h8q84 4 113 -57z" />
    <glyph glyph-name="Idotaccent" unicode="&#x130;" horiz-adv-x="686" 
d="M336 1614q-49 0 -84 33.5t-35 83t35 84t84 34.5t83 -34.5t34 -84t-34 -83t-83 -33.5zM336 0q-90 0 -90 90v1409h102q90 0 90 -90v-1409h-102z" />
    <glyph glyph-name="dotlessi" unicode="&#x131;" horiz-adv-x="632" 
d="M315 0q-90 0 -90 90v1409h103q90 0 90 -90v-1409h-103z" />
    <glyph glyph-name="uni0136" unicode="&#x136;" horiz-adv-x="1359" 
d="M178 0v1499h103q90 0 90 -90v-1319q0 -90 -90 -90h-103zM1118 0q-66 0 -110 47l-637 662l602 737q41 53 110 53h166l-635 -782l682 -717h-178zM612 -473l-4 6q-29 41 29 82q51 37 53 90q-45 -4 -77.5 29t-37.5 80q-2 47 31 84q35 39 84 39q100 0 125 -93q25 -96 -29 -190
q-59 -102 -174 -127z" />
    <glyph glyph-name="uni0137" unicode="&#x137;" horiz-adv-x="1359" 
d="M178 0v1499h103q90 0 90 -90v-1319q0 -90 -90 -90h-103zM1118 0q-66 0 -110 47l-637 662l602 737q41 53 110 53h166l-635 -782l682 -717h-178zM612 -473l-4 6q-29 41 29 82q51 37 53 90q-45 -4 -77.5 29t-37.5 80q-2 47 31 84q35 39 84 39q100 0 125 -93q25 -96 -29 -190
q-59 -102 -174 -127z" />
    <glyph glyph-name="Lacute" unicode="&#x139;" horiz-adv-x="1241" 
d="M182 1632l154 201q49 63 123 31l108 -49l-186 -144q-49 -39 -113 -39h-86zM180 0v1499h103q90 0 90 -90v-1251h749q90 0 90 -90v-68h-1032z" />
    <glyph glyph-name="lacute" unicode="&#x13a;" horiz-adv-x="1241" 
d="M182 1632l154 201q49 63 123 31l108 -49l-186 -144q-49 -39 -113 -39h-86zM180 0v1499h103q90 0 90 -90v-1251h749q90 0 90 -90v-68h-1032z" />
    <glyph glyph-name="uni013B" unicode="&#x13b;" horiz-adv-x="1241" 
d="M180 0v1499h103q90 0 90 -90v-1251h749q90 0 90 -90v-68h-1032zM641 -473l-4 6q-29 41 29 82q51 37 53 90q-45 -4 -78 29t-37 80q-2 47 31 84q35 39 84 39q100 0 125 -93q25 -96 -29 -190q-59 -102 -174 -127z" />
    <glyph glyph-name="uni013C" unicode="&#x13c;" horiz-adv-x="1241" 
d="M180 0v1499h103q90 0 90 -90v-1251h749q90 0 90 -90v-68h-1032zM641 -473l-4 6q-29 41 29 82q51 37 53 90q-45 -4 -78 29t-37 80q-2 47 31 84q35 39 84 39q100 0 125 -93q25 -96 -29 -190q-59 -102 -174 -127z" />
    <glyph glyph-name="Lcaron" unicode="&#x13d;" horiz-adv-x="1241" 
d="M672 1096l-4 6q-29 41 28 82q51 37 54 90q-45 -4 -78 28.5t-37 79.5q-2 47 31 84q35 39 84 39q100 0 124 -92q25 -96 -28 -190q-59 -102 -174 -127zM180 0v1499h103q90 0 90 -90v-1251h749q90 0 90 -90v-68h-1032z" />
    <glyph glyph-name="lcaron" unicode="&#x13e;" horiz-adv-x="1241" 
d="M672 1096l-4 6q-29 41 28 82q51 37 54 90q-45 -4 -78 28.5t-37 79.5q-2 47 31 84q35 39 84 39q100 0 124 -92q25 -96 -28 -190q-59 -102 -174 -127zM180 0v1499h103q90 0 90 -90v-1251h749q90 0 90 -90v-68h-1032z" />
    <glyph glyph-name="Lslash" unicode="&#x141;" horiz-adv-x="1329" 
d="M268 0v557l-196 -108v112q0 70 63 107l133 75v756h101q90 0 90 -90v-555l485 279v-111q0 -72 -61 -107l-424 -243v-514h751q90 0 90 -90v-68h-1032z" />
    <glyph glyph-name="lslash" unicode="&#x142;" horiz-adv-x="1329" 
d="M268 0v557l-196 -108v112q0 70 63 107l133 75v756h101q90 0 90 -90v-555l485 279v-111q0 -72 -61 -107l-424 -243v-514h751q90 0 90 -90v-68h-1032z" />
    <glyph glyph-name="Nacute" unicode="&#x143;" horiz-adv-x="1605" 
d="M655 1632l154 201q49 63 123 31l108 -49l-186 -144q-49 -39 -113 -39h-86zM178 0v1499h39l1036 -1069v979q0 90 90 90h101v-1499h-35l-1040 1077v-987q0 -90 -90 -90h-101z" />
    <glyph glyph-name="nacute" unicode="&#x144;" horiz-adv-x="1605" 
d="M655 1632l154 201q49 63 123 31l108 -49l-186 -144q-49 -39 -113 -39h-86zM178 0v1499h39l1036 -1069v979q0 90 90 90h101v-1499h-35l-1040 1077v-987q0 -90 -90 -90h-101z" />
    <glyph glyph-name="uni0145" unicode="&#x145;" horiz-adv-x="1605" 
d="M178 0v1499h39l1036 -1069v979q0 90 90 90h101v-1499h-35l-1040 1077v-987q0 -90 -90 -90h-101zM741 -473l-4 6q-29 41 29 82q51 37 53 90q-45 -4 -77.5 29t-36.5 80q-2 47 30 84q35 39 84 39q100 0 125 -93q25 -96 -29 -190q-59 -102 -174 -127z" />
    <glyph glyph-name="uni0146" unicode="&#x146;" horiz-adv-x="1605" 
d="M178 0v1499h39l1036 -1069v979q0 90 90 90h101v-1499h-35l-1040 1077v-987q0 -90 -90 -90h-101zM741 -473l-4 6q-29 41 29 82q51 37 53 90q-45 -4 -77.5 29t-36.5 80q-2 47 30 84q35 39 84 39q100 0 125 -93q25 -96 -29 -190q-59 -102 -174 -127z" />
    <glyph glyph-name="Ncaron" unicode="&#x147;" horiz-adv-x="1605" 
d="M709 1616l-197 250h106q68 0 111 -51l78 -95l78 95q43 51 110 51h107l-197 -250h-196zM178 0v1499h39l1036 -1069v979q0 90 90 90h101v-1499h-35l-1040 1077v-987q0 -90 -90 -90h-101z" />
    <glyph glyph-name="ncaron" unicode="&#x148;" horiz-adv-x="1605" 
d="M709 1616l-197 250h106q68 0 111 -51l78 -95l78 95q43 51 110 51h107l-197 -250h-196zM178 0v1499h39l1036 -1069v979q0 90 90 90h101v-1499h-35l-1040 1077v-987q0 -90 -90 -90h-101z" />
    <glyph glyph-name="Omacron" unicode="&#x14c;" horiz-adv-x="1705" 
d="M563 1624v53q0 90 90 90h504v-53q0 -90 -90 -90h-504zM860 -31q-328 0 -547 226.5t-219 554.5q0 326 219 553t547 227q332 0 551 -227.5t219 -552.5q0 -328 -219 -554.5t-551 -226.5zM860 141q238 0 408 181.5t170 427.5q0 244 -170 425t-408 181q-236 0 -405.5 -181.5
t-169.5 -425t169.5 -426t405.5 -182.5z" />
    <glyph glyph-name="omacron" unicode="&#x14d;" horiz-adv-x="1705" 
d="M563 1624v53q0 90 90 90h504v-53q0 -90 -90 -90h-504zM860 -31q-328 0 -547 226.5t-219 554.5q0 326 219 553t547 227q332 0 551 -227.5t219 -552.5q0 -328 -219 -554.5t-551 -226.5zM860 141q238 0 408 181.5t170 427.5q0 244 -170 425t-408 181q-236 0 -405.5 -181.5
t-169.5 -425t169.5 -426t405.5 -182.5z" />
    <glyph glyph-name="Ohungarumlaut" unicode="&#x150;" horiz-adv-x="1705" 
d="M563 1632l152 201q49 63 123 31l108 -49l-188 -144q-49 -39 -111 -39h-84zM956 1632l152 201q49 63 123 31l110 -49l-190 -146q-49 -37 -111 -37h-84zM860 -31q-328 0 -547 226.5t-219 554.5q0 326 219 553t547 227q332 0 551 -227.5t219 -552.5q0 -328 -219 -554.5
t-551 -226.5zM860 141q238 0 408 181.5t170 427.5q0 244 -170 425t-408 181q-236 0 -405.5 -181.5t-169.5 -425t169.5 -426t405.5 -182.5z" />
    <glyph glyph-name="ohungarumlaut" unicode="&#x151;" horiz-adv-x="1705" 
d="M563 1632l152 201q49 63 123 31l108 -49l-188 -144q-49 -39 -111 -39h-84zM956 1632l152 201q49 63 123 31l110 -49l-190 -146q-49 -37 -111 -37h-84zM860 -31q-328 0 -547 226.5t-219 554.5q0 326 219 553t547 227q332 0 551 -227.5t219 -552.5q0 -328 -219 -554.5
t-551 -226.5zM860 141q238 0 408 181.5t170 427.5q0 244 -170 425t-408 181q-236 0 -405.5 -181.5t-169.5 -425t169.5 -426t405.5 -182.5z" />
    <glyph glyph-name="OE" unicode="&#x152;" horiz-adv-x="2404" 
d="M94 750q0 322 224.5 551t541.5 229q184 0 348 -84v53h1055v-69q0 -90 -90 -91h-774v-518h704v-71q0 -90 -90 -91h-614v-495h772q41 0 66.5 -26.5t25.5 -65.5v-72h-1055v53q-164 -84 -348 -84q-317 0 -541.5 228.5t-224.5 552.5zM285 749.5q0 -243.5 170 -426t405 -182.5
q195 0 348 125v963q-158 127 -348 127q-236 0 -405.5 -181.5t-169.5 -425z" />
    <glyph glyph-name="oe" unicode="&#x153;" horiz-adv-x="2404" 
d="M94 750q0 322 224.5 551t541.5 229q184 0 348 -84v53h1055v-69q0 -90 -90 -91h-774v-518h704v-71q0 -90 -90 -91h-614v-495h772q41 0 66.5 -26.5t25.5 -65.5v-72h-1055v53q-164 -84 -348 -84q-317 0 -541.5 228.5t-224.5 552.5zM285 749.5q0 -243.5 170 -426t405 -182.5
q195 0 348 125v963q-158 127 -348 127q-236 0 -405.5 -181.5t-169.5 -425z" />
    <glyph glyph-name="Racute" unicode="&#x154;" horiz-adv-x="1452" 
d="M563 1632l154 201q49 63 123 31l108 -49l-186 -144q-49 -39 -113 -39h-86zM178 0v1499h660q217 0 356 -139t139 -359q0 -193 -99 -318.5t-269 -164.5l385 -518h-158q-70 0 -111 55l-325 451h-385v-416q0 -90 -90 -90h-103zM371 672h432q158 0 250 82t92 247
q0 49 -15.5 101.5t-49 109t-102.5 92t-161 35.5h-446v-667z" />
    <glyph glyph-name="racute" unicode="&#x155;" horiz-adv-x="1452" 
d="M563 1632l154 201q49 63 123 31l108 -49l-186 -144q-49 -39 -113 -39h-86zM178 0v1499h660q217 0 356 -139t139 -359q0 -193 -99 -318.5t-269 -164.5l385 -518h-158q-70 0 -111 55l-325 451h-385v-416q0 -90 -90 -90h-103zM371 672h432q158 0 250 82t92 247
q0 49 -15.5 101.5t-49 109t-102.5 92t-161 35.5h-446v-667z" />
    <glyph glyph-name="uni0156" unicode="&#x156;" horiz-adv-x="1452" 
d="M178 0v1499h660q217 0 356 -139t139 -359q0 -193 -99 -318.5t-269 -164.5l385 -518h-158q-70 0 -111 55l-325 451h-385v-416q0 -90 -90 -90h-103zM371 672h432q158 0 250 82t92 247q0 49 -15.5 101.5t-49 109t-102.5 92t-161 35.5h-446v-667zM659 -473l-4 6q-29 41 29 82
q51 37 53 90q-45 -4 -77.5 29t-36.5 80q-2 47 30 84q35 39 84 39q100 0 125 -93q25 -96 -28 -190q-60 -102 -175 -127z" />
    <glyph glyph-name="uni0157" unicode="&#x157;" horiz-adv-x="1452" 
d="M178 0v1499h660q217 0 356 -139t139 -359q0 -193 -99 -318.5t-269 -164.5l385 -518h-158q-70 0 -111 55l-325 451h-385v-416q0 -90 -90 -90h-103zM371 672h432q158 0 250 82t92 247q0 49 -15.5 101.5t-49 109t-102.5 92t-161 35.5h-446v-667zM659 -473l-4 6q-29 41 29 82
q51 37 53 90q-45 -4 -77.5 29t-36.5 80q-2 47 30 84q35 39 84 39q100 0 125 -93q25 -96 -28 -190q-60 -102 -175 -127z" />
    <glyph glyph-name="Rcaron" unicode="&#x158;" horiz-adv-x="1452" 
d="M625 1616l-197 250h107q68 0 110 -51l78 -95l78 95q43 51 110 51h107l-197 -250h-196zM178 0v1499h660q217 0 356 -139t139 -359q0 -193 -99 -318.5t-269 -164.5l385 -518h-158q-70 0 -111 55l-325 451h-385v-416q0 -90 -90 -90h-103zM371 672h432q158 0 250 82t92 247
q0 49 -15.5 101.5t-49 109t-102.5 92t-161 35.5h-446v-667z" />
    <glyph glyph-name="rcaron" unicode="&#x159;" horiz-adv-x="1452" 
d="M625 1616l-197 250h107q68 0 110 -51l78 -95l78 95q43 51 110 51h107l-197 -250h-196zM178 0v1499h660q217 0 356 -139t139 -359q0 -193 -99 -318.5t-269 -164.5l385 -518h-158q-70 0 -111 55l-325 451h-385v-416q0 -90 -90 -90h-103zM371 672h432q158 0 250 82t92 247
q0 49 -15.5 101.5t-49 109t-102.5 92t-161 35.5h-446v-667z" />
    <glyph glyph-name="Sacute" unicode="&#x15a;" horiz-adv-x="1372" 
d="M569 1632l154 201q49 63 123 31l108 -49l-186 -144q-49 -39 -113 -39h-86zM743 -31q-354 0 -602 203l54 66q51 63 124 16q182 -115 418 -115q170 0 265.5 75t95.5 192q0 66 -31 112.5t-93.5 76.5t-125 47t-158.5 34q-233 41 -332 86q-227 102 -227 332q0 96 34 171.5
t89 123t128 79t145.5 44t148.5 12.5q289 0 516 -162l-49 -72q-47 -70 -125 -26q-160 90 -354 90q-125 0 -232.5 -63.5t-107.5 -192.5q0 -61 38.5 -107.5t129 -79t134.5 -44t156 -33.5q18 -4 27 -7q66 -14 100.5 -22t102 -29.5t107.5 -50.5t84 -72t64.5 -106.5t20.5 -140.5
q0 -217 -153.5 -327t-391.5 -110z" />
    <glyph glyph-name="sacute" unicode="&#x15b;" horiz-adv-x="1372" 
d="M569 1632l154 201q49 63 123 31l108 -49l-186 -144q-49 -39 -113 -39h-86zM743 -31q-354 0 -602 203l54 66q51 63 124 16q182 -115 418 -115q170 0 265.5 75t95.5 192q0 66 -31 112.5t-93.5 76.5t-125 47t-158.5 34q-233 41 -332 86q-227 102 -227 332q0 96 34 171.5
t89 123t128 79t145.5 44t148.5 12.5q289 0 516 -162l-49 -72q-47 -70 -125 -26q-160 90 -354 90q-125 0 -232.5 -63.5t-107.5 -192.5q0 -61 38.5 -107.5t129 -79t134.5 -44t156 -33.5q18 -4 27 -7q66 -14 100.5 -22t102 -29.5t107.5 -50.5t84 -72t64.5 -106.5t20.5 -140.5
q0 -217 -153.5 -327t-391.5 -110z" />
    <glyph glyph-name="Scedilla" unicode="&#x15e;" horiz-adv-x="1372" 
d="M1288 406q0 -215 -151.5 -325t-386.5 -112l-25 -61q51 20 111 4q100 -31 90 -152q-10 -152 -193 -151q-84 2 -145 43q31 68 86 55q27 -6 57 -6q37 0 63.5 19.5t24.5 54.5q-4 63 -90 63q-70 -4 -96 -18l-17 26l50 125q-301 18 -525 201l54 66q51 63 124 16
q182 -115 418 -115q170 0 265.5 75t95.5 192q0 66 -31 112.5t-93.5 76.5t-125 47t-158.5 34q-233 41 -332 86q-227 102 -227 332q0 96 34 171.5t89 123t128 79t145.5 44t148.5 12.5q289 0 516 -162l-49 -72q-47 -70 -125 -26q-160 90 -354 90q-125 0 -232.5 -63.5
t-107.5 -192.5q0 -61 38.5 -107.5t129 -79t134.5 -44t156 -33.5q18 -4 27 -7q66 -14 100.5 -22t102 -29.5t107.5 -50.5t84 -72t64.5 -106t20.5 -141z" />
    <glyph glyph-name="scedilla" unicode="&#x15f;" horiz-adv-x="1372" 
d="M1288 406q0 -215 -151.5 -325t-386.5 -112l-25 -61q51 20 111 4q100 -31 90 -152q-10 -152 -193 -151q-84 2 -145 43q31 68 86 55q27 -6 57 -6q37 0 63.5 19.5t24.5 54.5q-4 63 -90 63q-70 -4 -96 -18l-17 26l50 125q-301 18 -525 201l54 66q51 63 124 16
q182 -115 418 -115q170 0 265.5 75t95.5 192q0 66 -31 112.5t-93.5 76.5t-125 47t-158.5 34q-233 41 -332 86q-227 102 -227 332q0 96 34 171.5t89 123t128 79t145.5 44t148.5 12.5q289 0 516 -162l-49 -72q-47 -70 -125 -26q-160 90 -354 90q-125 0 -232.5 -63.5
t-107.5 -192.5q0 -61 38.5 -107.5t129 -79t134.5 -44t156 -33.5q18 -4 27 -7q66 -14 100.5 -22t102 -29.5t107.5 -50.5t84 -72t64.5 -106t20.5 -141z" />
    <glyph glyph-name="Scaron" unicode="&#x160;" horiz-adv-x="1372" 
d="M575 1616l-196 250h106q68 0 111 -51l78 -95l78 95q43 51 110 51h107l-197 -250h-197zM743 -31q-354 0 -602 203l54 66q51 63 124 16q182 -115 418 -115q170 0 265.5 75t95.5 192q0 66 -31 112.5t-93.5 76.5t-125 47t-158.5 34q-233 41 -332 86q-227 102 -227 332
q0 96 34 171.5t89 123t128 79t145.5 44t148.5 12.5q289 0 516 -162l-49 -72q-47 -70 -125 -26q-160 90 -354 90q-125 0 -232.5 -63.5t-107.5 -192.5q0 -61 38.5 -107.5t129 -79t134.5 -44t156 -33.5q18 -4 27 -7q66 -14 100.5 -22t102 -29.5t107.5 -50.5t84 -72t64.5 -106.5
t20.5 -140.5q0 -217 -153.5 -327t-391.5 -110z" />
    <glyph glyph-name="scaron" unicode="&#x161;" horiz-adv-x="1372" 
d="M575 1616l-196 250h106q68 0 111 -51l78 -95l78 95q43 51 110 51h107l-197 -250h-197zM743 -31q-354 0 -602 203l54 66q51 63 124 16q182 -115 418 -115q170 0 265.5 75t95.5 192q0 66 -31 112.5t-93.5 76.5t-125 47t-158.5 34q-233 41 -332 86q-227 102 -227 332
q0 96 34 171.5t89 123t128 79t145.5 44t148.5 12.5q289 0 516 -162l-49 -72q-47 -70 -125 -26q-160 90 -354 90q-125 0 -232.5 -63.5t-107.5 -192.5q0 -61 38.5 -107.5t129 -79t134.5 -44t156 -33.5q18 -4 27 -7q66 -14 100.5 -22t102 -29.5t107.5 -50.5t84 -72t64.5 -106.5
t20.5 -140.5q0 -217 -153.5 -327t-391.5 -110z" />
    <glyph glyph-name="uni0162" unicode="&#x162;" horiz-adv-x="1236" 
d="M530 0v1339h-456v70q0 90 90 90h1012v-69q0 -90 -91 -91h-364v-1249q0 -90 -90 -90h-101zM553 -473l-4 6q-29 41 29 82q51 37 53 90q-45 -4 -78 29t-37 80q-2 47 31 84q35 39 84 39q100 0 125 -93q25 -96 -29 -190q-59 -102 -174 -127z" />
    <glyph glyph-name="uni0163" unicode="&#x163;" horiz-adv-x="1236" 
d="M530 0v1339h-456v70q0 90 90 90h1012v-69q0 -90 -91 -91h-364v-1249q0 -90 -90 -90h-101zM553 -473l-4 6q-29 41 29 82q51 37 53 90q-45 -4 -78 29t-37 80q-2 47 31 84q35 39 84 39q100 0 125 -93q25 -96 -29 -190q-59 -102 -174 -127z" />
    <glyph glyph-name="Tcaron" unicode="&#x164;" horiz-adv-x="1236" 
d="M526 1616l-196 250h106q68 0 111 -51l78 -95l77 95q43 51 111 51h107l-197 -250h-197zM530 0v1339h-456v70q0 90 90 90h1012v-69q0 -90 -91 -91h-364v-1249q0 -90 -90 -90h-101z" />
    <glyph glyph-name="tcaron" unicode="&#x165;" horiz-adv-x="1236" 
d="M526 1616l-196 250h106q68 0 111 -51l78 -95l77 95q43 51 111 51h107l-197 -250h-197zM530 0v1339h-456v70q0 90 90 90h1012v-69q0 -90 -91 -91h-364v-1249q0 -90 -90 -90h-101z" />
    <glyph glyph-name="Umacron" unicode="&#x16a;" horiz-adv-x="1589" 
d="M494 1624v53q0 90 90 90h503v-53q0 -90 -90 -90h-503zM803 -29q-283 0 -454 170t-171 453v905h101q90 0 90 -90v-805q0 -131 44 -227t113.5 -145.5t138 -71t138 -21.5t138.5 21.5t138.5 71t113.5 145.5t44 227v805q0 90 90 90h100v-905q0 -285 -169.5 -454t-454.5 -169z
" />
    <glyph glyph-name="umacron" unicode="&#x16b;" horiz-adv-x="1589" 
d="M494 1624v53q0 90 90 90h503v-53q0 -90 -90 -90h-503zM803 -29q-283 0 -454 170t-171 453v905h101q90 0 90 -90v-805q0 -131 44 -227t113.5 -145.5t138 -71t138 -21.5t138.5 21.5t138.5 71t113.5 145.5t44 227v805q0 90 90 90h100v-905q0 -285 -169.5 -454t-454.5 -169z
" />
    <glyph glyph-name="Uring" unicode="&#x16e;" horiz-adv-x="1589" 
d="M801 1522q-82 0 -141.5 59t-59.5 143q0 82 59.5 141.5t141.5 59.5t140 -59.5t58 -141.5q0 -84 -58 -143t-140 -59zM801 1624q41 0 68.5 28.5t27.5 71.5q0 41 -27.5 70t-68.5 29q-43 0 -69.5 -28t-26.5 -71t26.5 -71.5t69.5 -28.5zM803 -29q-283 0 -454 170t-171 453v905
h101q90 0 90 -90v-805q0 -131 44 -227t113.5 -145.5t138 -71t138 -21.5t138.5 21.5t138.5 71t113.5 145.5t44 227v805q0 90 90 90h100v-905q0 -285 -169.5 -454t-454.5 -169z" />
    <glyph glyph-name="uring" unicode="&#x16f;" horiz-adv-x="1589" 
d="M801 1522q-82 0 -141.5 59t-59.5 143q0 82 59.5 141.5t141.5 59.5t140 -59.5t58 -141.5q0 -84 -58 -143t-140 -59zM801 1624q41 0 68.5 28.5t27.5 71.5q0 41 -27.5 70t-68.5 29q-43 0 -69.5 -28t-26.5 -71t26.5 -71.5t69.5 -28.5zM803 -29q-283 0 -454 170t-171 453v905
h101q90 0 90 -90v-805q0 -131 44 -227t113.5 -145.5t138 -71t138 -21.5t138.5 21.5t138.5 71t113.5 145.5t44 227v805q0 90 90 90h100v-905q0 -285 -169.5 -454t-454.5 -169z" />
    <glyph glyph-name="Uhungarumlaut" unicode="&#x170;" horiz-adv-x="1589" 
d="M442 1632l152 201q49 63 123 31l108 -49l-188 -144q-49 -39 -111 -39h-84zM836 1632l151 201q49 63 123 31l111 -49l-191 -146q-49 -37 -110 -37h-84zM803 -29q-283 0 -454 170t-171 453v905h101q90 0 90 -90v-805q0 -131 44 -227t113.5 -145.5t138 -71t138 -21.5
t138.5 21.5t138.5 71t113.5 145.5t44 227v805q0 90 90 90h100v-905q0 -285 -169.5 -454t-454.5 -169z" />
    <glyph glyph-name="uhungarumlaut" unicode="&#x171;" horiz-adv-x="1589" 
d="M442 1632l152 201q49 63 123 31l108 -49l-188 -144q-49 -39 -111 -39h-84zM836 1632l151 201q49 63 123 31l111 -49l-191 -146q-49 -37 -110 -37h-84zM803 -29q-283 0 -454 170t-171 453v905h101q90 0 90 -90v-805q0 -131 44 -227t113.5 -145.5t138 -71t138 -21.5
t138.5 21.5t138.5 71t113.5 145.5t44 227v805q0 90 90 90h100v-905q0 -285 -169.5 -454t-454.5 -169z" />
    <glyph glyph-name="Uogonek" unicode="&#x172;" horiz-adv-x="1589" 
d="M1327 1499h100v-905q0 -252 -136 -416t-371 -198h-2q-4 0 -7 -3q-117 -16 -116 -110q0 -53 34.5 -83t92.5 -30h8q84 4 112 -55l23 -47q-57 -27 -154 -27q-111 0 -184.5 66.5t-73.5 161.5q0 76 41 127q-238 33 -377 196.5t-139 417.5v905h101q90 0 90 -90v-805
q0 -131 44 -227t113.5 -145.5t138 -71t138 -21.5t138.5 21.5t138.5 71t113.5 145.5t44 227v805q0 90 90 90z" />
    <glyph glyph-name="uogonek" unicode="&#x173;" horiz-adv-x="1589" 
d="M1327 1499h100v-905q0 -252 -136 -416t-371 -198h-2q-4 0 -7 -3q-117 -16 -116 -110q0 -53 34.5 -83t92.5 -30h8q84 4 112 -55l23 -47q-57 -27 -154 -27q-111 0 -184.5 66.5t-73.5 161.5q0 76 41 127q-238 33 -377 196.5t-139 417.5v905h101q90 0 90 -90v-805
q0 -131 44 -227t113.5 -145.5t138 -71t138 -21.5t138.5 21.5t138.5 71t113.5 145.5t44 227v805q0 90 90 90z" />
    <glyph glyph-name="Ydieresis" unicode="&#x178;" horiz-adv-x="1429" 
d="M516 1612q-49 0 -84 33.5t-35 83t35 84t84 34.5t83 -34.5t34 -84t-34 -83t-83 -33.5zM919.5 1612q-49.5 0 -83 33.5t-33.5 83t33.5 84t83 34.5t84 -34.5t34.5 -84t-34.5 -83t-84 -33.5zM625 0v571l-557 928h149q74 0 109 -61l395 -678l397 678q35 61 109 61h151
l-561 -932v-477q0 -90 -90 -90h-102z" />
    <glyph glyph-name="Zacute" unicode="&#x179;" horiz-adv-x="1415" 
d="M567 1632l154 201q49 63 123 31l108 -49l-186 -144q-49 -39 -113 -39h-86zM94 0v41l926 1298h-809q-90 0 -90 91v69h1208v-41l-919 -1294h829q90 0 90 -90v-74h-1235z" />
    <glyph glyph-name="zacute" unicode="&#x17a;" horiz-adv-x="1415" 
d="M567 1632l154 201q49 63 123 31l108 -49l-186 -144q-49 -39 -113 -39h-86zM94 0v41l926 1298h-809q-90 0 -90 91v69h1208v-41l-919 -1294h829q90 0 90 -90v-74h-1235z" />
    <glyph glyph-name="Zdotaccent" unicode="&#x17b;" horiz-adv-x="1415" 
d="M696 1614q-49 0 -83.5 33.5t-34.5 83t34.5 84t83.5 34.5t83 -34.5t34 -84t-34 -83t-83 -33.5zM94 0v41l926 1298h-809q-90 0 -90 91v69h1208v-41l-919 -1294h829q90 0 90 -90v-74h-1235z" />
    <glyph glyph-name="zdotaccent" unicode="&#x17c;" horiz-adv-x="1415" 
d="M696 1614q-49 0 -83.5 33.5t-34.5 83t34.5 84t83.5 34.5t83 -34.5t34 -84t-34 -83t-83 -33.5zM94 0v41l926 1298h-809q-90 0 -90 91v69h1208v-41l-919 -1294h829q90 0 90 -90v-74h-1235z" />
    <glyph glyph-name="Zcaron" unicode="&#x17d;" horiz-adv-x="1415" 
d="M575 1616l-196 250h106q68 0 111 -51l78 -95l78 95q43 51 110 51h107l-197 -250h-197zM94 0v41l926 1298h-809q-90 0 -90 91v69h1208v-41l-919 -1294h829q90 0 90 -90v-74h-1235z" />
    <glyph glyph-name="zcaron" unicode="&#x17e;" horiz-adv-x="1415" 
d="M575 1616l-196 250h106q68 0 111 -51l78 -95l78 95q43 51 110 51h107l-197 -250h-197zM94 0v41l926 1298h-809q-90 0 -90 91v69h1208v-41l-919 -1294h829q90 0 90 -90v-74h-1235z" />
    <glyph glyph-name="uni0218" unicode="&#x218;" horiz-adv-x="1372" 
d="M743 -31q-354 0 -602 203l54 66q51 63 124 16q182 -115 418 -115q170 0 265.5 75t95.5 192q0 66 -31 112.5t-93.5 76.5t-125 47t-158.5 34q-233 41 -332 86q-227 102 -227 332q0 96 34 171.5t89 123t128 79t145.5 44t148.5 12.5q289 0 516 -162l-49 -72q-47 -70 -125 -26
q-160 90 -354 90q-125 0 -232.5 -63.5t-107.5 -192.5q0 -61 38.5 -107.5t129 -79t134.5 -44t156 -33.5q18 -4 27 -7q66 -14 100.5 -22t102 -29.5t107.5 -50.5t84 -72t64.5 -106.5t20.5 -140.5q0 -217 -153.5 -327t-391.5 -110zM659 -473l-4 6q-29 41 29 82q51 37 53 90
q-45 -4 -77.5 29t-36.5 80q-2 47 30 84q35 39 84 39q100 0 125 -93q25 -96 -28 -190q-60 -102 -175 -127z" />
    <glyph glyph-name="uni0219" unicode="&#x219;" horiz-adv-x="1372" 
d="M743 -31q-354 0 -602 203l54 66q51 63 124 16q182 -115 418 -115q170 0 265.5 75t95.5 192q0 66 -31 112.5t-93.5 76.5t-125 47t-158.5 34q-233 41 -332 86q-227 102 -227 332q0 96 34 171.5t89 123t128 79t145.5 44t148.5 12.5q289 0 516 -162l-49 -72q-47 -70 -125 -26
q-160 90 -354 90q-125 0 -232.5 -63.5t-107.5 -192.5q0 -61 38.5 -107.5t129 -79t134.5 -44t156 -33.5q18 -4 27 -7q66 -14 100.5 -22t102 -29.5t107.5 -50.5t84 -72t64.5 -106.5t20.5 -140.5q0 -217 -153.5 -327t-391.5 -110zM659 -473l-4 6q-29 41 29 82q51 37 53 90
q-45 -4 -77.5 29t-36.5 80q-2 47 30 84q35 39 84 39q100 0 125 -93q25 -96 -28 -190q-60 -102 -175 -127z" />
    <glyph glyph-name="uni021A" unicode="&#x21a;" horiz-adv-x="1236" 
d="M530 0v1339h-456v70q0 90 90 90h1012v-69q0 -90 -91 -91h-364v-1249q0 -90 -90 -90h-101zM553 -473l-4 6q-29 41 29 82q51 37 53 90q-45 -4 -78 29t-37 80q-2 47 31 84q35 39 84 39q100 0 125 -93q25 -96 -29 -190q-59 -102 -174 -127z" />
    <glyph glyph-name="uni021B" unicode="&#x21b;" horiz-adv-x="1236" 
d="M530 0v1339h-456v70q0 90 90 90h1012v-69q0 -90 -91 -91h-364v-1249q0 -90 -90 -90h-101zM553 -473l-4 6q-29 41 29 82q51 37 53 90q-45 -4 -78 29t-37 80q-2 47 31 84q35 39 84 39q100 0 125 -93q25 -96 -29 -190q-59 -102 -174 -127z" />
    <glyph glyph-name="circumflex" unicode="&#x2c6;" horiz-adv-x="870" 
d="M121 1597l194 250h197l199 -250h-107q-68 0 -110 52l-84 94l-72 -92q-41 -53 -111 -54h-106z" />
    <glyph glyph-name="caron" unicode="&#x2c7;" horiz-adv-x="872" 
d="M317 1597l-196 250h106q68 0 111 -51l78 -94l78 94q43 51 110 51h107l-197 -250h-197z" />
    <glyph glyph-name="breve" unicode="&#x2d8;" horiz-adv-x="864" 
d="M416 1624q-127 0 -225.5 77t-127.5 195h68q61 0 107 -63q66 -82 180 -82q104 0 172 84q45 61 108 61h72q-31 -117 -128 -194.5t-226 -77.5z" />
    <glyph glyph-name="dotaccent" unicode="&#x2d9;" horiz-adv-x="425" 
d="M190.5 1651q-49.5 0 -84 33.5t-34.5 83t34.5 84t84 34.5t83 -34.5t33.5 -84t-33.5 -83t-83 -33.5z" />
    <glyph glyph-name="ring" unicode="&#x2da;" horiz-adv-x="561" 
d="M262 1485q-82 0 -141.5 59.5t-59.5 143.5q0 82 59.5 141t141.5 59t140.5 -59.5t58.5 -140.5q0 -84 -58.5 -143.5t-140.5 -59.5zM262 1587q41 0 68.5 29t27.5 72q0 41 -27.5 69.5t-68.5 28.5q-43 0 -69.5 -27.5t-26.5 -70.5t26.5 -72t69.5 -29z" />
    <glyph glyph-name="ogonek" unicode="&#x2db;" horiz-adv-x="561" 
d="M326 -381q-111 0 -184.5 68.5t-73.5 165.5q0 119 76.5 192.5t181.5 89.5l10 -137q-18 -2 -41 -9t-54.5 -39t-31.5 -79q0 -53 35 -85t92 -32h8q84 4 113 -57l22 -51q-57 -27 -153 -27z" />
    <glyph glyph-name="tilde" unicode="&#x2dc;" horiz-adv-x="954" 
d="M608 1620q-57 0 -103 20.5t-69.5 44t-58.5 44t-74 20.5q-41 0 -74 -33q-37 -35 -53 -42t-61 5l-43 21q74 182 233 182q80 0 159 -63.5t138 -63.5q45 0 82 43q61 72 119 39l41 -22q-27 -78 -86.5 -136.5t-149.5 -58.5z" />
    <glyph glyph-name="hungarumlaut" unicode="&#x2dd;" horiz-adv-x="964" 
d="M72 1632l151 201q49 63 123 31l109 -49l-189 -144q-49 -39 -110 -39h-84zM465 1632l151 201q49 63 123 31l111 -49l-191 -146q-49 -37 -110 -37h-84z" />
    <glyph glyph-name="endash" unicode="&#x2013;" horiz-adv-x="997" 
d="M98 694v66q0 90 90 90h695v-66q0 -90 -90 -90h-695z" />
    <glyph glyph-name="emdash" unicode="&#x2014;" horiz-adv-x="1484" 
d="M88 694v66q0 90 90 90h1217v-66q0 -90 -90 -90h-1217z" />
    <glyph glyph-name="quoteleft" unicode="&#x2018;" horiz-adv-x="495" 
d="M311 1524l4 -6q29 -41 -28 -82q-51 -37 -54 -90q45 4 78 -29t37 -80q2 -47 -31 -84q-35 -39 -84 -39q-100 0 -124 92q-25 96 28 191q59 102 174 127z" />
    <glyph glyph-name="quoteright" unicode="&#x2019;" horiz-adv-x="413" 
d="M121 1116l-4 6q-29 41 28 82q51 37 54 90q-45 -4 -78 29t-37 80q-2 47 31 84q35 39 84 39q100 0 125 -92q25 -96 -29 -191q-59 -102 -174 -127z" />
    <glyph glyph-name="quotesinglbase" unicode="&#x201a;" horiz-adv-x="423" 
d="M98 -193l-4 7q-29 41 29 82q51 37 53 90q-45 -4 -77.5 28.5t-37.5 79.5q-2 47 31 84q35 39 84 39q100 0 125 -92q25 -96 -29 -191q-59 -102 -174 -127z" />
    <glyph glyph-name="quotedblleft" unicode="&#x201c;" horiz-adv-x="862" 
d="M311 1524l4 -6q29 -41 -28 -82q-51 -37 -54 -90q45 4 78 -29t37 -80q2 -47 -31 -84q-35 -39 -84 -39q-100 0 -124 92q-25 96 28 191q59 102 174 127zM649 1524l4 -6q29 -41 -28 -82q-51 -37 -54 -90q45 4 78 -29t37 -80q2 -47 -31 -84q-35 -39 -84 -39q-100 0 -125 92
q-25 96 29 191q59 102 174 127z" />
    <glyph glyph-name="quotedblright" unicode="&#x201d;" horiz-adv-x="817" 
d="M131 1112l-4 6q-29 41 29 82q51 37 53 90q-45 -4 -78 29t-37 80q-2 47 31 84q35 39 84 39q100 0 125 -92q25 -96 -29 -191q-59 -102 -174 -127zM469 1112l-4 6q-29 41 29 82q51 37 53 90q-45 -4 -78 29t-37 80q-2 47 31 84q35 39 84 39q100 0 125 -92q25 -96 -29 -191
q-59 -102 -174 -127z" />
    <glyph glyph-name="quotedblbase" unicode="&#x201e;" horiz-adv-x="817" 
d="M131 -190l-4 6q-29 41 29 82q51 37 53 90q-45 -4 -78 28.5t-37 79.5q-2 47 31 84q35 39 84 39q100 0 125 -92q25 -96 -29 -190q-59 -102 -174 -127zM469 -190l-4 6q-29 41 29 82q51 37 53 90q-45 -4 -78 28.5t-37 79.5q-2 47 31 84q35 39 84 39q100 0 125 -92
q25 -96 -29 -190q-59 -102 -174 -127z" />
    <glyph glyph-name="dagger" unicode="&#x2020;" horiz-adv-x="974" 
d="M485 0q-88 0 -88 90v895h-336v66q0 90 91 90h245v420h84q90 0 90 -91v-329h332v-66q0 -90 -90 -90h-242v-985h-86z" />
    <glyph glyph-name="daggerdbl" unicode="&#x2021;" horiz-adv-x="987" 
d="M485 0q-88 0 -88 90v332h-336v65q0 90 91 91h245v407h-336v66q0 90 91 90h245v420h84q90 0 90 -91v-329h332v-66q0 -90 -90 -90h-242v-407h332v-66q0 -90 -90 -90h-242v-422h-86z" />
    <glyph glyph-name="bullet" unicode="&#x2022;" horiz-adv-x="731" 
d="M356.5 643q-77.5 0 -133 56.5t-55.5 136t55.5 136t133 56.5t134 -56.5t56.5 -136t-56.5 -136t-134 -56.5z" />
    <glyph glyph-name="ellipsis" unicode="&#x2026;" horiz-adv-x="1411" 
d="M223 -12q-47 0 -82 34.5t-35 82t35 82t82 34.5t82 -34.5t35 -82t-35 -82t-82 -34.5zM684 -12q-47 0 -82 34.5t-35 82t35 82t82 34.5t82 -34.5t35 -82t-35 -82t-82 -34.5zM1143 -12q-47 0 -82 34.5t-35 82t35 82t82 34.5t82 -34.5t35 -82t-35 -82t-82 -34.5z" />
    <glyph glyph-name="perthousand" unicode="&#x2030;" horiz-adv-x="2531" 
d="M420 723q-154 0 -253 111.5t-99 281.5q0 172 99 282.5t253 110.5q152 0 250 -110.5t98 -282.5q0 -168 -100.5 -280.5t-247.5 -112.5zM360 0l842 1440q35 61 109 61h121l-840 -1440q-35 -61 -109 -61h-123zM420 879q82 0 126 74.5t44 162.5t-41 162t-129 74q-57 0 -96 -29
t-53.5 -74t-19.5 -75.5t-5 -57.5q0 -25 4 -53.5t18.5 -75.5t54.5 -77.5t97 -30.5zM1331 -33q-152 0 -250 111.5t-98 283.5q0 170 98.5 281t249.5 111q150 0 248 -111t98 -281q0 -168 -99.5 -281.5t-246.5 -113.5zM2140 -33q-152 0 -250 111.5t-98 283.5q0 170 98.5 281
t249.5 111q150 0 248 -111t98 -281q0 -168 -99.5 -281.5t-246.5 -113.5zM1331 123q84 0 129 74.5t45 164.5q0 86 -43 161t-131 75q-55 0 -94 -28.5t-54.5 -73.5t-20.5 -76t-5 -57.5t4 -55t18.5 -76t54.5 -78t97 -30.5zM2140 123q84 0 129 74.5t45 164.5q0 86 -43 161
t-131 75q-55 0 -94 -28.5t-54.5 -73.5t-20.5 -76t-5 -57.5t4 -55t18.5 -76t54.5 -78t97 -30.5z" />
    <glyph glyph-name="guilsinglleft" unicode="&#x2039;" horiz-adv-x="817" 
d="M492 299q-70 0 -107 59l-250 394l252 399q37 59 107 59h131l-293 -460l293 -451h-133z" />
    <glyph glyph-name="guilsinglright" unicode="&#x203a;" horiz-adv-x="817" 
d="M162 299l293 451l-293 460h131q70 0 106 -59l252 -399l-250 -394q-37 -59 -106 -59h-133z" />
    <glyph glyph-name="fraction" unicode="&#x2044;" horiz-adv-x="1067" 
d="M-6 0l844 1440q35 61 108 61h82l-842 -1440q-35 -61 -108 -61h-84z" />
    <glyph glyph-name="Euro" unicode="&#x20ac;" horiz-adv-x="1384" 
d="M844 -31q-102 0 -200.5 33t-188.5 98.5t-153.5 178t-82.5 258.5h-162v67q0 90 90 90h64l4 127h-158v80q0 78 90 78h93q53 238 217 392.5t387 154.5q311 0 461 -246l-82 -45q-66 -37 -125 20q-113 104 -254 105q-129 0 -247 -107.5t-165 -273.5h465v-68q0 -90 -90 -90
h-399q-4 -45 -5 -127h494v-67q0 -90 -90 -90h-395q25 -160 141.5 -281t290.5 -121q164 0 268 113q55 61 121 33l92 -41q-53 -104 -174 -187.5t-307 -83.5z" />
    <glyph glyph-name="trademark" unicode="&#x2122;" horiz-adv-x="1712" 
d="M319 766v594h-227v51q0 90 90 90h512v-51q0 -90 -90 -90h-139v-504q0 -90 -90 -90h-56zM831 766v735h15l346 -430l344 430h16v-735h-55q-90 0 -90 90v254l-215 -266l-215 266v-254q0 -90 -90 -90h-56z" />
    <glyph glyph-name="notequal" unicode="&#x2260;" horiz-adv-x="1134" 
d="M178 164l121 235h-176v68q0 90 90 90h158l176 365h-424v67q0 90 90 90h412l82 172q31 66 106 66h109l-117 -238h192v-67q0 -90 -90 -90h-176l-172 -365h438v-68q0 -90 -90 -90h-426l-84 -170q-31 -66 -106 -65h-113z" />
    <glyph glyph-name="lessequal" unicode="&#x2264;" horiz-adv-x="1048" 
d="M909 451l-786 354v164l786 377v-127q0 -78 -67 -107l-504 -219l502 -205q70 -31 69 -104v-133zM121 0v66q0 90 90 90h702v-66q0 -90 -90 -90h-702z" />
    <glyph glyph-name="greaterequal" unicode="&#x2265;" horiz-adv-x="1048" 
d="M125 451v133q0 74 70 104l501 205l-503 219q-68 29 -68 107v127l786 -377v-162zM121 0v66q0 90 90 90h702v-66q0 -90 -90 -90h-702z" />
    <glyph glyph-name="glyph310" horiz-adv-x="0" 
 />
    </font>
</defs>
</svg>
